<?xml version="1.0" encoding="UTF-8" standalone="no"?><!DOCTYPE svg PUBLIC "-//W3C//DTD SVG 1.1//EN" "http://www.w3.org/Graphics/SVG/1.1/DTD/svg11.dtd"><svg width="100%" height="100%" viewBox="0 0 800 243" version="1.1" xmlns="http://www.w3.org/2000/svg" xmlns:xlink="http://www.w3.org/1999/xlink" xml:space="preserve" xmlns:serif="http://www.serif.com/" style="fill-rule:evenodd;clip-rule:evenodd;stroke-linecap:round;stroke-linejoin:round;stroke-miterlimit:1.5;"><g><g><rect x="70.377" y="120.225" width="659.749" height="11.83" style="fill:#f0b823;"/></g><g><path d="M333.306,126.141c0,0 75.767,10.696 116.189,-49.687c42.828,-63.976 116.189,-49.687 116.189,-49.687" style="fill:none;stroke:#f0b823;stroke-width:12.13px;"/></g><g><g><path d="M64.593,195.006c-11.897,0 -22.746,-3.058 -32.548,-9.174c-9.802,-6.116 -17.593,-14.326 -23.374,-24.631c-5.781,-10.305 -8.671,-21.74 -8.671,-34.307c0,-9.383 1.676,-18.222 5.027,-26.516c3.351,-8.294 7.959,-15.583 13.823,-21.866c5.864,-6.283 12.692,-11.226 20.484,-14.829c7.791,-3.602 16.211,-5.404 25.259,-5.404c11.394,0 20.274,2.136 26.641,6.409c6.367,4.273 11.31,9.928 14.829,16.965l0,-20.609l33.679,0l0,130.694l-32.925,0l0,-21.363c-3.519,7.372 -8.503,13.321 -14.954,17.845c-6.451,4.524 -15.541,6.786 -27.27,6.786Zm5.529,-30.663c7.54,0 14.033,-1.717 19.478,-5.152c5.446,-3.435 9.676,-8.001 12.692,-13.698c3.016,-5.697 4.524,-11.897 4.524,-18.599c0,-6.87 -1.508,-13.153 -4.524,-18.85c-3.016,-5.697 -7.247,-10.305 -12.692,-13.823c-5.446,-3.519 -11.938,-5.278 -19.478,-5.278c-7.205,0 -13.53,1.717 -18.976,5.152c-5.446,3.435 -9.676,8.001 -12.692,13.698c-3.016,5.697 -4.524,11.98 -4.524,18.85c0,6.535 1.508,12.692 4.524,18.473c3.016,5.781 7.247,10.43 12.692,13.949c5.446,3.519 11.771,5.278 18.976,5.278Z" style="fill:#0e2a47;fill-rule:nonzero;"/><g><path d="M214.639,195.006c-9.383,0 -18.138,-1.759 -26.264,-5.278c-8.126,-3.519 -15.29,-8.42 -21.489,-14.703c-6.2,-6.283 -11.017,-13.572 -14.452,-21.866c-3.435,-8.294 -5.152,-17.216 -5.152,-26.767c0,-12.734 2.974,-24.254 8.922,-34.559c5.948,-10.305 14.159,-18.557 24.631,-24.756c10.472,-6.2 22.327,-9.299 35.564,-9.299c11.897,-0.168 22.536,1.927 31.919,6.283c9.383,4.356 16.839,10.388 22.369,18.096l-26.139,21.363c-3.016,-4.524 -6.912,-8.126 -11.687,-10.807c-4.775,-2.681 -10.095,-4.021 -15.96,-4.021c-7.205,0 -13.488,1.717 -18.85,5.152c-5.362,3.435 -9.509,8.001 -12.441,13.698c-2.932,5.697 -4.398,11.98 -4.398,18.85c0,6.702 1.55,12.944 4.65,18.724c3.1,5.781 7.372,10.388 12.818,13.823c5.446,3.435 11.771,5.152 18.976,5.152c6.535,0 12.064,-1.466 16.588,-4.398c4.524,-2.932 8.462,-6.66 11.813,-11.184l24.631,21.363c-6.2,7.875 -13.865,14.033 -22.997,18.473c-9.132,4.44 -20.149,6.66 -33.051,6.66Z" style="fill:#0e2a47;fill-rule:nonzero;"/><path d="M368.959,242.006l0,-69.62c-3.519,6.87 -8.462,12.357 -14.829,16.462c-6.367,4.105 -15.164,6.158 -26.39,6.158c-11.897,0 -22.746,-3.058 -32.548,-9.174c-9.802,-6.116 -17.593,-14.326 -23.374,-24.631c-5.781,-10.305 -8.671,-21.74 -8.671,-34.307c0,-9.383 1.676,-18.222 5.027,-26.516c3.351,-8.294 7.959,-15.583 13.823,-21.866c5.864,-6.283 12.692,-11.226 20.484,-14.829c7.791,-3.602 16.211,-5.404 25.259,-5.404c11.394,0 20.316,2.178 26.767,6.535c6.451,4.356 11.436,10.137 14.954,17.342l0,-21.112l33.428,0l0,180.961l-33.93,0Zm-35.69,-77.662c7.54,0 14.033,-1.717 19.478,-5.152c5.446,-3.435 9.676,-8.001 12.692,-13.698c3.016,-5.697 4.524,-11.897 4.524,-18.599c0,-6.87 -1.508,-13.153 -4.524,-18.85c-3.016,-5.697 -7.247,-10.305 -12.692,-13.823c-5.446,-3.519 -11.938,-5.278 -19.478,-5.278c-7.205,0 -13.53,1.717 -18.976,5.152c-5.446,3.435 -9.676,8.001 -12.692,13.698c-3.016,5.697 -4.524,11.98 -4.524,18.85c0,6.535 1.508,12.692 4.524,18.473c3.016,5.781 7.247,10.43 12.692,13.949c5.446,3.519 11.771,5.278 18.976,5.278Z" style="fill:#0e2a47;fill-rule:nonzero;"/><path d="M463.964,194.755c-9.383,0 -17.845,-2.178 -25.385,-6.535c-7.54,-4.356 -13.488,-10.598 -17.845,-18.724c-4.356,-8.126 -6.535,-17.635 -6.535,-28.526l0,-79.924l33.93,0l0,71.63c0,11.226 2.262,19.437 6.786,24.631c4.524,5.194 10.975,7.791 19.353,7.791c7.205,0 13.53,-2.597 18.976,-7.791c5.446,-5.194 8.168,-13.405 8.168,-24.631l0,-71.63l33.93,0l0,130.694l-32.925,0l0,-19.604c-3.184,7.54 -7.833,13.195 -13.949,16.965c-6.116,3.77 -14.284,5.655 -24.505,5.655Z" style="fill:#0e2a47;fill-rule:nonzero;"/><path d="M564.749,50.238c-5.697,0 -10.514,-1.969 -14.452,-5.906c-3.938,-3.938 -5.906,-8.671 -5.906,-14.2c0,-5.362 1.969,-10.011 5.906,-13.949c3.938,-3.938 8.755,-5.906 14.452,-5.906c5.864,0 10.724,1.969 14.577,5.906c3.854,3.938 5.781,8.587 5.781,13.949c0,5.697 -1.927,10.472 -5.781,14.326c-3.854,3.854 -8.713,5.781 -14.577,5.781Zm-16.839,141.501l0,-130.694l33.93,0l0,130.694l-33.93,0Z" style="fill:#0e2a47;fill-rule:nonzero;"/><path d="M594.407,191.739l0,-130.694l32.925,0l0,24.882c2.178,-9.383 6.618,-16.546 13.321,-21.489c6.702,-4.943 15.75,-7.079 27.144,-6.409l0,31.919l-4.775,0c-9.718,0 -17.929,3.1 -24.631,9.299c-6.702,6.2 -10.053,14.745 -10.053,25.636l0,66.855l-33.93,0Z" style="fill:#0e2a47;fill-rule:nonzero;"/><path d="M724.849,195.006c-11.897,0 -22.746,-3.058 -32.548,-9.174c-9.802,-6.116 -17.593,-14.326 -23.374,-24.631c-5.781,-10.305 -8.671,-21.74 -8.671,-34.307c0,-9.383 1.676,-18.222 5.027,-26.516c3.351,-8.294 7.959,-15.583 13.823,-21.866c5.864,-6.283 12.692,-11.226 20.484,-14.829c7.791,-3.602 16.211,-5.404 25.259,-5.404c11.394,0 20.274,2.136 26.641,6.409c6.367,4.273 11.31,9.928 14.829,16.965l0,-20.609l33.679,0l0,130.694l-32.925,0l0,-21.363c-3.519,7.372 -8.503,13.321 -14.954,17.845c-6.451,4.524 -15.541,6.786 -27.27,6.786Zm5.529,-30.663c7.54,0 14.033,-1.717 19.478,-5.152c5.446,-3.435 9.676,-8.001 12.692,-13.698c3.016,-5.697 4.524,-11.897 4.524,-18.599c0,-6.87 -1.508,-13.153 -4.524,-18.85c-3.016,-5.697 -7.247,-10.305 -12.692,-13.823c-5.446,-3.519 -11.938,-5.278 -19.478,-5.278c-7.205,0 -13.53,1.717 -18.976,5.152c-5.446,3.435 -9.676,8.001 -12.692,13.698c-3.016,5.697 -4.524,11.98 -4.524,18.85c0,6.535 1.508,12.692 4.524,18.473c3.016,5.781 7.247,10.43 12.692,13.949c5.446,3.519 11.771,5.278 18.976,5.278Z" style="fill:#0e2a47;fill-rule:nonzero;"/></g></g></g><g><circle cx="70.377" cy="126.141" r="26.766" style="fill:#f0b823;"/></g><g><circle cx="730.126" cy="126.141" r="26.766" style="fill:#f0b823;"/></g><g><circle cx="565.684" cy="26.766" r="26.766" style="fill:#f0b823;"/></g><g><circle cx="333.306" cy="126.141" r="26.766" style="fill:#f0b823;"/></g></g></svg>