<?xml version="1.0" encoding="UTF-8" standalone="no"?>
<!DOCTYPE svg PUBLIC "-//W3C//DTD SVG 1.1//EN" "http://www.w3.org/Graphics/SVG/1.1/DTD/svg11.dtd">
<svg width="100%" height="100%" viewBox="0 0 800 149" version="1.1" xmlns="http://www.w3.org/2000/svg" xmlns:xlink="http://www.w3.org/1999/xlink" xml:space="preserve" xmlns:serif="http://www.serif.com/" style="fill-rule:evenodd;clip-rule:evenodd;stroke-linejoin:round;stroke-miterlimit:2;">
    <g id="path2043" transform="matrix(1.6,0,0,1.6,0,-0)">
        <path d="M500,72.1L490.4,62.5L480.8,72.1L490.4,81.7L500,72.1ZM496.1,2.9C495.6,0.6 490.4,3.9 479.5,13.8C483.9,18.7 486,15.9 489.6,14.6C492.4,20 493.5,44.4 475.1,51.6C475.6,27 475.9,0.8 475.9,0.8C475.9,0 475.4,0 474.9,0C470,0.8 460.9,9.6 453.9,17.1C457.8,23.3 462.4,17.6 466.3,16.1C466.3,17.1 465.5,35.3 465.8,53.7C446.9,55.3 450,16.2 451,11.2C451.5,7.1 438.8,16.1 432.6,21.8C434.7,25.4 437.3,24.6 440.9,23.4C439.6,40.8 451.8,56.8 466,56.3C466.5,74.2 468.3,91.8 473.5,93.1C474.3,93.4 474.8,75 475.1,54.5C509.1,43.9 496.1,2.9 496.1,2.9ZM80.8,66.2L80.8,14.9L67.4,14.9L67.4,66.7C67.4,77.8 72.8,83.8 85.8,83.8L94,83.8L94,74L88.6,74C82.9,73.9 80.8,72.1 80.8,66.2ZM282.4,15.6L262.7,67.7L243,15.6L223.8,15.6L223.8,83.7L237.3,83.7L237.3,43.1C237.3,40.5 237.3,36.1 237,33.3L237.5,33.3L256.4,83.8L268.8,83.8L288,33.3L288.3,33.3C288,36.1 288,40.6 288,43.1L288,83.8L301.5,83.8L301.5,15.6L282.4,15.6ZM120.5,84.6C137.3,84.6 145.6,78.6 145.6,62.6L145.6,31.7L132.1,31.7L132.1,62.3C132.1,71.6 126.4,75 120.2,75C114,75 108.3,71.6 108.3,62.3L108.3,31.7L94.8,31.7L94.8,62.5C95.1,78.6 103.6,84.6 120.5,84.6ZM166.1,62.3L166.1,53C166.1,43.7 173.4,40.3 179.6,40.3C185.8,40.3 193.1,43.7 193.1,53L193.1,62.3C193.1,71.6 185.8,75 179.6,75C173.3,75.2 166.1,71.6 166.1,62.3ZM205.7,53.2C205.7,40.5 198.4,30.9 181.3,30.9C176.1,30.9 170.7,32.2 166.3,34.3L166.3,14.9L152.8,14.9L152.8,62.3C152.8,78.4 162.4,84.3 179.2,84.3C196,84.3 205.6,77.6 205.6,61.5C205.7,61.5 205.7,53.2 205.7,53.2ZM405.4,52.9L405.4,62.2C405.4,71.5 398.1,74.9 391.9,74.9C385.7,74.9 378.4,71.5 378.4,62.2L378.4,52.9C378.4,43.6 385.7,40.2 391.9,40.2C398.2,40.3 405.4,43.9 405.4,52.9ZM390.4,30.9C373.3,30.9 366,40.5 366,53.2L366,61.5C366,77.6 375.6,84.3 392.4,84.3C409.2,84.3 418.8,78.3 418.8,62.3L418.8,14.9L405.6,14.9L405.6,34.3C401,32.2 395.6,30.9 390.4,30.9ZM320.7,53.2C320.7,43.6 328,40 334.2,40C340.4,40 347.7,43.6 347.7,53.2L320.7,53.2ZM351,70C345.3,73.9 341.2,75.2 334.7,75.2C326.9,75.2 320.5,70.8 320.5,62.5L320.5,61.5L360.4,61.5L360.4,57.1C360.4,41 350.8,30.9 334,30.9C317.2,30.9 307.5,41 307.5,57.1L307.5,59.2C307.5,74.7 316.8,84.6 334.7,84.6C343.8,84.6 351.5,82.8 359.3,76.6L351,70ZM31.9,84.6C49.5,84.6 60.4,75.5 62.7,63.4L48.4,63.4C46.1,71.4 40.1,75.3 31.6,75.3C18.4,75.3 13.5,66.5 13.5,53L13.5,46.3C13.5,31.3 20,24.3 31.6,24.3C39.9,24.3 45.8,27.9 48.4,36.2L62.6,36.2C60,24 49.4,15 31.8,15C11.7,14.9 0,27 0,46L0,55.3C0,73.2 11.1,84.6 31.9,84.6Z" style="fill:rgb(0,85,138);fill-rule:nonzero;"/>
    </g>
</svg>
