<?xml version="1.0" encoding="UTF-8" standalone="no"?><!DOCTYPE svg PUBLIC "-//W3C//DTD SVG 1.1//EN" "http://www.w3.org/Graphics/SVG/1.1/DTD/svg11.dtd"><svg width="100%" height="100%" viewBox="0 0 600 104" version="1.1" xmlns="http://www.w3.org/2000/svg" xmlns:xlink="http://www.w3.org/1999/xlink" xml:space="preserve" xmlns:serif="http://www.serif.com/" style="fill-rule:evenodd;clip-rule:evenodd;stroke-linejoin:round;stroke-miterlimit:2;"><g><g transform="matrix(117.676402,0,0,117.676402,602.588881,79.431572)"></g><text x="115.409px" y="79.432px" style="font-family:'NotablyAbsent-Regular', 'Notably Absent';font-size:117.676px;fill:#e60000;">c<tspan x="160.243px 215.434px 239.204px 278.273px 333.463px 367.824px 425.957px 481.618px 542.927px " y="79.432px 79.432px 79.432px 79.432px 79.432px 79.432px 79.432px 79.432px 79.432px ">ulturapop</tspan></text><path d="M56.865,102.937c-1.731,0.176 -3.487,0.266 -5.263,0.266c-28.479,0 -51.601,-23.122 -51.601,-51.601c0,-25.553 18.614,-46.792 43.01,-50.888l-0,24.041l-1.664,0l0,13.537l-6.655,0c-7.346,0 -13.31,5.964 -13.31,13.31c0,7.346 5.964,13.31 13.31,13.31c7.346,0 13.31,-5.964 13.31,-13.31l0,-26.847l-1.664,0l0,-24.489c1.731,-0.176 3.487,-0.266 5.263,-0.266c28.479,0 51.601,23.122 51.601,51.601c0,25.553 -18.614,46.792 -43.01,50.888l0,-24.041l1.664,0l0,-13.537l6.655,0c7.346,0 13.31,-5.964 13.31,-13.31c0,-7.346 -5.964,-13.31 -13.31,-13.31c-7.346,0 -13.31,5.964 -13.31,13.31l-0,26.847l1.664,0l0,24.489Z" style="fill:#e60000;"/></g></svg>