<?xml version="1.0" encoding="UTF-8" standalone="no"?><!DOCTYPE svg PUBLIC "-//W3C//DTD SVG 1.1//EN" "http://www.w3.org/Graphics/SVG/1.1/DTD/svg11.dtd"><svg width="100%" height="100%" viewBox="0 0 600 104" version="1.1" xmlns="http://www.w3.org/2000/svg" xmlns:xlink="http://www.w3.org/1999/xlink" xml:space="preserve" xmlns:serif="http://www.serif.com/" style="fill-rule:evenodd;clip-rule:evenodd;stroke-linejoin:round;stroke-miterlimit:2;"><g><g><path d="M142.003,81.079c-4.393,0 -8.179,-0.726 -11.356,-2.177c-3.177,-1.451 -5.766,-3.452 -7.767,-6.001c-2,-2.55 -3.471,-5.57 -4.413,-9.061c-0.941,-3.491 -1.412,-7.276 -1.412,-11.356c0,-3.923 0.471,-7.767 1.412,-11.532c0.941,-3.766 2.432,-7.139 4.472,-10.12c2.04,-2.981 4.648,-5.374 7.825,-7.178c3.177,-1.804 7.002,-2.707 11.473,-2.707c2.04,0 4.217,0.275 6.531,0.824c2.314,0.549 4.452,1.393 6.413,2.53c1.961,1.138 3.589,2.589 4.884,4.354c1.294,1.765 1.942,3.864 1.942,6.296c0,2.824 -0.981,5.06 -2.942,6.708c-1.961,1.647 -4.315,2.471 -7.061,2.471c-1.961,0 -3.216,-0.353 -3.766,-1.059c-0.549,-0.706 -0.922,-1.51 -1.118,-2.412c-0.196,-0.902 -0.51,-1.706 -0.941,-2.412c-0.431,-0.706 -1.51,-1.059 -3.236,-1.059c-1.726,0 -3.06,0.49 -4.001,1.471c-0.941,0.981 -1.647,2.177 -2.118,3.589c-0.471,1.412 -0.765,2.922 -0.883,4.531c-0.118,1.608 -0.177,3.04 -0.177,4.295c0,3.687 0.726,6.668 2.177,8.943c1.451,2.275 4.217,3.413 8.296,3.413c1.098,0 2.177,-0.157 3.236,-0.471c1.059,-0.314 2.02,-0.686 2.883,-1.118c0.863,-0.431 1.647,-0.804 2.354,-1.118c0.706,-0.314 1.294,-0.471 1.765,-0.471c0.863,0 1.589,0.471 2.177,1.412c0.588,0.941 1.098,2.02 1.53,3.236c0.431,1.216 0.745,2.452 0.941,3.707c0.196,1.255 0.294,2.197 0.294,2.824c0,1.961 -0.726,3.57 -2.177,4.825c-1.451,1.255 -3.216,2.236 -5.295,2.942c-2.079,0.706 -4.217,1.196 -6.413,1.471c-2.197,0.275 -4.04,0.412 -5.531,0.412Z" style="fill:#e60000;fill-rule:nonzero;"/><path d="M204.607,79.902c-0.706,0 -1.51,-0.039 -2.412,-0.118c-0.902,-0.078 -1.746,-0.275 -2.53,-0.588c-0.785,-0.314 -1.432,-0.765 -1.942,-1.353c-0.51,-0.588 -0.726,-1.353 -0.647,-2.295c-1.961,1.804 -4.138,3.06 -6.531,3.766c-2.393,0.706 -4.884,1.059 -7.472,1.059c-5.962,0 -10.787,-1.746 -14.474,-5.237c-3.687,-3.491 -5.531,-8.257 -5.531,-14.298l0,-9.061l-0.118,-18.004l0,-9.061c0,-0.785 0.451,-1.373 1.353,-1.765c0.902,-0.392 1.942,-0.647 3.118,-0.765c1.177,-0.118 2.354,-0.177 3.53,-0.177l2.589,0c0.392,0 1.059,0.02 2,0.059c0.941,0.039 1.883,0.118 2.824,0.235c0.941,0.118 1.785,0.333 2.53,0.647c0.745,0.314 1.118,0.785 1.118,1.412c0,1.883 -0.039,4.55 -0.118,8.002c-0.078,3.452 -0.137,7.041 -0.177,10.767c-0.039,3.726 0,7.217 0.118,10.473c0.118,3.256 0.373,5.629 0.765,7.119c0.235,0.941 0.686,1.863 1.353,2.765c0.667,0.902 1.549,1.353 2.648,1.353c2.197,0 3.903,-0.549 5.119,-1.647c1.216,-1.098 2.138,-2.471 2.765,-4.119c0.628,-1.647 1.02,-3.413 1.177,-5.295c0.157,-1.883 0.235,-3.648 0.235,-5.295l0,-23.535c0,-0.706 0.333,-1.255 1,-1.647c0.667,-0.392 1.471,-0.686 2.412,-0.883c0.941,-0.196 1.863,-0.314 2.765,-0.353c0.902,-0.039 1.589,-0.059 2.059,-0.059c0.706,0 1.667,0.02 2.883,0.059c1.216,0.039 2.393,0.196 3.53,0.471c1.138,0.275 2.138,0.686 3.001,1.236c0.863,0.549 1.294,1.334 1.294,2.354l0,50.483c0,0.706 -0.431,1.275 -1.294,1.706c-0.863,0.431 -1.883,0.765 -3.06,1c-1.177,0.235 -2.334,0.392 -3.471,0.471c-1.138,0.078 -1.942,0.118 -2.412,0.118Z" style="fill:#e60000;fill-rule:nonzero;"/><path d="M228.849,-0c0.706,-0 1.471,0.059 2.295,0.177c0.824,0.118 1.608,0.333 2.354,0.647c0.745,0.314 1.373,0.765 1.883,1.353c0.51,0.588 0.765,1.314 0.765,2.177l0,12.944l-0.118,26.124l0,12.944c0,0.785 -0.039,1.569 -0.118,2.354c-0.078,0.785 -0.039,1.569 0.118,2.354c0.157,1.412 0.49,2.275 1,2.589c0.51,0.314 1.079,0.471 1.706,0.471l1.647,0c0.549,0 1.039,0.177 1.471,0.53c0.431,0.353 0.785,1.02 1.059,2c0.275,0.981 0.412,2.491 0.412,4.531c0,1.961 -0.216,3.53 -0.647,4.707c-0.431,1.177 -1.098,2.059 -2,2.648c-0.902,0.588 -2,0.961 -3.295,1.118c-1.294,0.157 -2.805,0.235 -4.531,0.235c-5.492,0 -9.434,-1.432 -11.826,-4.295c-2.393,-2.863 -3.589,-6.923 -3.589,-12.18l0,-9.532l-0.118,-18.946l0,-9.532c0,-1.177 -0.02,-2.785 -0.059,-4.825c-0.039,-2.04 -0.059,-4.138 -0.059,-6.296c0,-2.157 0.02,-4.197 0.059,-6.119c0.039,-1.922 0.137,-3.393 0.294,-4.413c0.235,-1.491 1.02,-2.491 2.354,-3.001c1.334,-0.51 2.667,-0.765 4.001,-0.765l4.942,0Z" style="fill:#e60000;fill-rule:nonzero;"/><path d="M264.858,58.603c0,1.804 0.471,3.452 1.412,4.942c0.941,1.491 2.432,2.236 4.472,2.236c1.177,0 2.138,-0.255 2.883,-0.765c0.745,-0.51 1.628,-0.765 2.648,-0.765c0.863,0 1.53,0.431 2,1.294c0.471,0.863 0.843,1.863 1.118,3.001c0.275,1.138 0.451,2.275 0.53,3.413c0.078,1.138 0.118,2.02 0.118,2.648c0,1.647 -0.451,2.922 -1.353,3.824c-0.902,0.902 -2,1.589 -3.295,2.059c-1.294,0.471 -2.707,0.745 -4.236,0.824c-1.53,0.078 -2.922,0.118 -4.178,0.118c-4.707,0 -8.414,-0.785 -11.12,-2.354c-2.707,-1.569 -4.746,-3.687 -6.119,-6.355c-1.373,-2.667 -2.236,-5.727 -2.589,-9.179c-0.353,-3.452 -0.53,-7.1 -0.53,-10.944l0,-14.71c-1.491,0 -2.687,-0.078 -3.589,-0.235c-0.902,-0.157 -1.589,-0.49 -2.059,-1c-0.471,-0.51 -0.765,-1.236 -0.883,-2.177c-0.118,-0.941 -0.177,-2.157 -0.177,-3.648c0,-0.471 0.039,-1.157 0.118,-2.059c0.078,-0.902 0.216,-1.785 0.412,-2.648c0.196,-0.863 0.49,-1.628 0.883,-2.295c0.392,-0.667 0.941,-1 1.647,-1l3.648,0c0,-2.903 -0.078,-5.433 -0.235,-7.59c-0.157,-2.157 0,-3.962 0.471,-5.413c0.471,-1.451 1.412,-2.55 2.824,-3.295c1.412,-0.745 3.687,-1.118 6.825,-1.118c0.628,0 1.393,0.039 2.295,0.118c0.902,0.078 1.785,0.235 2.648,0.471c0.863,0.235 1.628,0.588 2.295,1.059c0.667,0.471 1,1.138 1,2l0.353,13.768c1.726,-0 3.354,-0.059 4.884,-0.177c1.53,-0.118 2.844,-0.039 3.942,0.235c1.098,0.275 1.981,0.863 2.648,1.765c0.667,0.902 1,2.412 1,4.531c0,2.51 -0.235,4.374 -0.706,5.59c-0.471,1.216 -1.196,2.059 -2.177,2.53c-0.981,0.471 -2.275,0.686 -3.883,0.647c-1.608,-0.039 -3.589,-0.059 -5.943,-0.059l0,20.711Z" style="fill:#e60000;fill-rule:nonzero;"/><path d="M322.637,79.902c-0.706,0 -1.51,-0.039 -2.412,-0.118c-0.902,-0.078 -1.746,-0.275 -2.53,-0.588c-0.785,-0.314 -1.432,-0.765 -1.942,-1.353c-0.51,-0.588 -0.726,-1.353 -0.647,-2.295c-1.961,1.804 -4.138,3.06 -6.531,3.766c-2.393,0.706 -4.884,1.059 -7.472,1.059c-5.962,0 -10.787,-1.746 -14.474,-5.237c-3.687,-3.491 -5.531,-8.257 -5.531,-14.298l0,-9.061l-0.118,-18.004l0,-9.061c0,-0.785 0.451,-1.373 1.353,-1.765c0.902,-0.392 1.942,-0.647 3.118,-0.765c1.177,-0.118 2.354,-0.177 3.53,-0.177l2.589,0c0.392,0 1.059,0.02 2,0.059c0.941,0.039 1.883,0.118 2.824,0.235c0.941,0.118 1.785,0.333 2.53,0.647c0.745,0.314 1.118,0.785 1.118,1.412c0,1.883 -0.039,4.55 -0.118,8.002c-0.078,3.452 -0.137,7.041 -0.177,10.767c-0.039,3.726 0,7.217 0.118,10.473c0.118,3.256 0.373,5.629 0.765,7.119c0.235,0.941 0.686,1.863 1.353,2.765c0.667,0.902 1.549,1.353 2.648,1.353c2.197,0 3.903,-0.549 5.119,-1.647c1.216,-1.098 2.138,-2.471 2.765,-4.119c0.628,-1.647 1.02,-3.413 1.177,-5.295c0.157,-1.883 0.235,-3.648 0.235,-5.295l0,-23.535c0,-0.706 0.333,-1.255 1,-1.647c0.667,-0.392 1.471,-0.686 2.412,-0.883c0.941,-0.196 1.863,-0.314 2.765,-0.353c0.902,-0.039 1.589,-0.059 2.059,-0.059c0.706,0 1.667,0.02 2.883,0.059c1.216,0.039 2.393,0.196 3.53,0.471c1.138,0.275 2.138,0.686 3.001,1.236c0.863,0.549 1.294,1.334 1.294,2.354l0,50.483c0,0.706 -0.431,1.275 -1.294,1.706c-0.863,0.431 -1.883,0.765 -3.06,1c-1.177,0.235 -2.334,0.392 -3.471,0.471c-1.138,0.078 -1.942,0.118 -2.412,0.118Z" style="fill:#e60000;fill-rule:nonzero;"/><path d="M346.643,80.02c-0.706,0 -1.647,-0.02 -2.824,-0.059c-1.177,-0.039 -2.334,-0.196 -3.471,-0.471c-1.138,-0.275 -2.118,-0.706 -2.942,-1.294c-0.824,-0.588 -1.236,-1.393 -1.236,-2.412l0,-50.483c0,-0.706 0.431,-1.255 1.294,-1.647c0.863,-0.392 1.883,-0.706 3.06,-0.941c1.177,-0.235 2.314,-0.392 3.413,-0.471c1.098,-0.078 1.883,-0.118 2.354,-0.118c1.883,0 3.55,0.314 5.001,0.941c1.451,0.628 2.177,2 2.177,4.119c1.804,-1.961 3.942,-3.432 6.413,-4.413c2.471,-0.981 5.04,-1.471 7.708,-1.471c1.02,0 1.804,0.392 2.354,1.177c0.549,0.785 0.941,1.706 1.177,2.765c0.235,1.059 0.373,2.157 0.412,3.295c0.039,1.138 0.059,2.059 0.059,2.765c0,0.471 -0.039,1.177 -0.118,2.118c-0.078,0.941 -0.235,1.902 -0.471,2.883c-0.235,0.981 -0.549,1.844 -0.941,2.589c-0.392,0.745 -0.902,1.118 -1.53,1.118c-4.236,0 -7.531,1.196 -9.885,3.589c-2.354,2.393 -3.53,5.707 -3.53,9.944l0,23.418c0,0.785 -0.333,1.373 -1,1.765c-0.667,0.392 -1.471,0.686 -2.412,0.883c-0.941,0.196 -1.883,0.314 -2.824,0.353c-0.941,0.039 -1.687,0.059 -2.236,0.059Z" style="fill:#e60000;fill-rule:nonzero;"/><path d="M407.364,74.96c-2.118,1.804 -4.432,3.216 -6.943,4.236c-2.51,1.02 -5.178,1.53 -8.002,1.53c-4.158,0 -7.708,-0.824 -10.65,-2.471c-2.942,-1.647 -5.354,-3.824 -7.237,-6.531c-1.883,-2.707 -3.275,-5.805 -4.178,-9.296c-0.902,-3.491 -1.353,-7.08 -1.353,-10.767c0,-3.609 0.451,-7.237 1.353,-10.885c0.902,-3.648 2.334,-6.963 4.295,-9.944c1.961,-2.981 4.432,-5.413 7.414,-7.296c2.981,-1.883 6.551,-2.824 10.709,-2.824c2.903,0 5.629,0.373 8.179,1.118c2.55,0.745 4.766,2.334 6.649,4.766l0,-1.177c0,-0.785 0.412,-1.393 1.236,-1.824c0.824,-0.431 1.804,-0.765 2.942,-1c1.138,-0.235 2.255,-0.373 3.354,-0.412c1.098,-0.039 1.922,-0.059 2.471,-0.059c0.785,0 1.628,0.02 2.53,0.059c0.902,0.039 1.765,0.177 2.589,0.412c0.824,0.235 1.51,0.647 2.059,1.236c0.549,0.588 0.824,1.432 0.824,2.53l0,12.121l0.235,24.241l0,12.121c0,1.334 -0.353,2.354 -1.059,3.06c-0.706,0.706 -1.569,1.236 -2.589,1.589c-1.02,0.353 -2.118,0.549 -3.295,0.588c-1.177,0.039 -2.236,0.059 -3.177,0.059l-2.471,0c-0.941,0 -1.844,-0.098 -2.707,-0.294c-0.863,-0.196 -1.589,-0.549 -2.177,-1.059c-0.588,-0.51 -0.883,-1.275 -0.883,-2.295l0,-0.765c0,-0.275 -0.039,-0.53 -0.118,-0.765Zm-10.709,-11.532c1.647,0 3.099,-0.353 4.354,-1.059c1.255,-0.706 2.275,-1.647 3.06,-2.824c0.785,-1.177 1.373,-2.491 1.765,-3.942c0.392,-1.451 0.588,-2.922 0.588,-4.413c0,-1.412 -0.196,-2.922 -0.588,-4.531c-0.392,-1.608 -1,-3.118 -1.824,-4.531c-0.824,-1.412 -1.863,-2.589 -3.118,-3.53c-1.255,-0.941 -2.707,-1.412 -4.354,-1.412c-1.569,0 -2.942,0.49 -4.119,1.471c-1.177,0.981 -2.138,2.177 -2.883,3.589c-0.745,1.412 -1.294,2.922 -1.647,4.531c-0.353,1.608 -0.53,3.079 -0.53,4.413c0,1.412 0.177,2.844 0.53,4.295c0.353,1.451 0.902,2.765 1.647,3.942c0.745,1.177 1.706,2.138 2.883,2.883c1.177,0.745 2.589,1.118 4.236,1.118Z" style="fill:#e60000;fill-rule:nonzero;"/><path d="M447.491,99.907c0,0.863 -0.353,1.51 -1.059,1.942c-0.706,0.431 -1.53,0.745 -2.471,0.941c-0.941,0.196 -1.902,0.314 -2.883,0.353c-0.981,0.039 -1.746,0.059 -2.295,0.059l-3.648,0c-1.177,0 -2.236,-0.157 -3.177,-0.471c-0.941,-0.314 -1.687,-0.883 -2.236,-1.706c-0.549,-0.824 -0.824,-2.059 -0.824,-3.707l0,-71.9c0,-0.863 0.471,-1.53 1.412,-2c0.941,-0.471 2.04,-0.785 3.295,-0.941c1.255,-0.157 2.51,-0.235 3.766,-0.235l2.824,0c0.941,0 1.824,0.02 2.648,0.059c0.824,0.039 1.569,0.216 2.236,0.53c0.667,0.314 1.177,0.765 1.53,1.353c0.353,0.588 0.53,1.471 0.53,2.648c1.883,-1.883 4.04,-3.315 6.472,-4.295c2.432,-0.981 5.021,-1.471 7.767,-1.471c4.393,0 8.002,0.863 10.826,2.589c2.824,1.726 5.04,4.001 6.649,6.825c1.608,2.824 2.707,6.021 3.295,9.591c0.588,3.57 0.883,7.198 0.883,10.885c0,3.766 -0.353,7.453 -1.059,11.062c-0.706,3.609 -1.942,6.786 -3.707,9.532c-1.765,2.746 -4.119,4.962 -7.061,6.649c-2.942,1.687 -6.609,2.53 -11.003,2.53c-2.197,0 -4.472,-0.255 -6.825,-0.765c-2.354,-0.51 -4.315,-1.589 -5.884,-3.236l0,23.182Zm9.649,-36.48c1.412,0 2.648,-0.471 3.707,-1.412c1.059,-0.941 1.922,-2.099 2.589,-3.471c0.667,-1.373 1.177,-2.805 1.53,-4.295c0.353,-1.491 0.53,-2.824 0.53,-4.001c0,-1.255 -0.137,-2.628 -0.412,-4.119c-0.275,-1.491 -0.726,-2.903 -1.353,-4.236c-0.628,-1.334 -1.471,-2.452 -2.53,-3.354c-1.059,-0.902 -2.373,-1.353 -3.942,-1.353c-1.647,0 -3.079,0.451 -4.295,1.353c-1.216,0.902 -2.236,2.02 -3.06,3.354c-0.824,1.334 -1.451,2.805 -1.883,4.413c-0.431,1.608 -0.647,3.118 -0.647,4.531c0,1.569 0.177,3.118 0.53,4.648c0.353,1.53 0.902,2.883 1.647,4.06c0.745,1.177 1.746,2.118 3.001,2.824c1.255,0.706 2.785,1.059 4.589,1.059Z" style="fill:#e60000;fill-rule:nonzero;"/><path d="M513.39,80.726c-9.493,0 -16.651,-2.628 -21.476,-7.884c-4.825,-5.256 -7.237,-12.552 -7.237,-21.888c0,-4.472 0.667,-8.59 2,-12.356c1.334,-3.766 3.256,-7.002 5.766,-9.708c2.51,-2.707 5.59,-4.805 9.238,-6.296c3.648,-1.491 7.747,-2.236 12.297,-2.236c9.728,0 17.004,2.707 21.829,8.12c4.825,5.413 7.237,12.827 7.237,22.241c0,4.472 -0.686,8.551 -2.059,12.238c-1.373,3.687 -3.354,6.845 -5.943,9.473c-2.589,2.628 -5.707,4.668 -9.355,6.119c-3.648,1.451 -7.747,2.177 -12.297,2.177Zm0,-17.298c1.647,0 3.138,-0.392 4.472,-1.177c1.334,-0.785 2.452,-1.804 3.354,-3.06c0.902,-1.255 1.589,-2.648 2.059,-4.178c0.471,-1.53 0.706,-3.04 0.706,-4.531c0,-1.647 -0.157,-3.275 -0.471,-4.884c-0.314,-1.608 -0.843,-3.02 -1.589,-4.236c-0.745,-1.216 -1.765,-2.216 -3.06,-3.001c-1.294,-0.785 -2.922,-1.177 -4.884,-1.177c-1.726,0 -3.216,0.431 -4.472,1.294c-1.255,0.863 -2.314,1.961 -3.177,3.295c-0.863,1.334 -1.51,2.805 -1.942,4.413c-0.431,1.608 -0.647,3.158 -0.647,4.648c0,1.412 0.196,2.863 0.588,4.354c0.392,1.491 0.981,2.844 1.765,4.06c0.785,1.216 1.785,2.216 3.001,3.001c1.216,0.785 2.648,1.177 4.295,1.177Z" style="fill:#e60000;fill-rule:nonzero;"/><path d="M564.462,99.907c0,0.863 -0.353,1.51 -1.059,1.942c-0.706,0.431 -1.53,0.745 -2.471,0.941c-0.941,0.196 -1.902,0.314 -2.883,0.353c-0.981,0.039 -1.746,0.059 -2.295,0.059l-3.648,0c-1.177,0 -2.236,-0.157 -3.177,-0.471c-0.941,-0.314 -1.687,-0.883 -2.236,-1.706c-0.549,-0.824 -0.824,-2.059 -0.824,-3.707l0,-71.9c0,-0.863 0.471,-1.53 1.412,-2c0.941,-0.471 2.04,-0.785 3.295,-0.941c1.255,-0.157 2.51,-0.235 3.766,-0.235l2.824,0c0.941,0 1.824,0.02 2.648,0.059c0.824,0.039 1.569,0.216 2.236,0.53c0.667,0.314 1.177,0.765 1.53,1.353c0.353,0.588 0.53,1.471 0.53,2.648c1.883,-1.883 4.04,-3.315 6.472,-4.295c2.432,-0.981 5.021,-1.471 7.767,-1.471c4.393,0 8.002,0.863 10.826,2.589c2.824,1.726 5.04,4.001 6.649,6.825c1.608,2.824 2.707,6.021 3.295,9.591c0.588,3.57 0.883,7.198 0.883,10.885c0,3.766 -0.353,7.453 -1.059,11.062c-0.706,3.609 -1.942,6.786 -3.707,9.532c-1.765,2.746 -4.119,4.962 -7.061,6.649c-2.942,1.687 -6.609,2.53 -11.003,2.53c-2.197,0 -4.472,-0.255 -6.825,-0.765c-2.354,-0.51 -4.315,-1.589 -5.884,-3.236l0,23.182Zm9.649,-36.48c1.412,0 2.648,-0.471 3.707,-1.412c1.059,-0.941 1.922,-2.099 2.589,-3.471c0.667,-1.373 1.177,-2.805 1.53,-4.295c0.353,-1.491 0.53,-2.824 0.53,-4.001c0,-1.255 -0.137,-2.628 -0.412,-4.119c-0.275,-1.491 -0.726,-2.903 -1.353,-4.236c-0.628,-1.334 -1.471,-2.452 -2.53,-3.354c-1.059,-0.902 -2.373,-1.353 -3.942,-1.353c-1.647,0 -3.079,0.451 -4.295,1.353c-1.216,0.902 -2.236,2.02 -3.06,3.354c-0.824,1.334 -1.451,2.805 -1.883,4.413c-0.431,1.608 -0.647,3.118 -0.647,4.531c0,1.569 0.177,3.118 0.53,4.648c0.353,1.53 0.902,2.883 1.647,4.06c0.745,1.177 1.746,2.118 3.001,2.824c1.255,0.706 2.785,1.059 4.589,1.059Z" style="fill:#e60000;fill-rule:nonzero;"/></g><path d="M56.865,102.937c-1.731,0.176 -3.487,0.266 -5.263,0.266c-28.479,0 -51.601,-23.122 -51.601,-51.601c0,-25.553 18.614,-46.792 43.01,-50.888l-0,24.041l-1.664,0l0,13.537l-6.655,0c-7.346,0 -13.31,5.964 -13.31,13.31c0,7.346 5.964,13.31 13.31,13.31c7.346,0 13.31,-5.964 13.31,-13.31l0,-26.847l-1.664,0l0,-24.489c1.731,-0.176 3.487,-0.266 5.263,-0.266c28.479,0 51.601,23.122 51.601,51.601c0,25.553 -18.614,46.792 -43.01,50.888l0,-24.041l1.664,0l0,-13.537l6.655,0c7.346,0 13.31,-5.964 13.31,-13.31c0,-7.346 -5.964,-13.31 -13.31,-13.31c-7.346,0 -13.31,5.964 -13.31,13.31l0,26.847l1.664,0l0,24.489Z" style="fill:#e60000;"/></g></svg>