<?xml version="1.0" encoding="UTF-8" standalone="no"?>
<!DOCTYPE svg PUBLIC "-//W3C//DTD SVG 1.1//EN" "http://www.w3.org/Graphics/SVG/1.1/DTD/svg11.dtd">
<svg width="100%" height="100%" viewBox="0 0 800 219" version="1.1" xmlns="http://www.w3.org/2000/svg" xmlns:xlink="http://www.w3.org/1999/xlink" xml:space="preserve" xmlns:serif="http://www.serif.com/" style="fill-rule:evenodd;clip-rule:evenodd;stroke-linejoin:round;stroke-miterlimit:2;">
    <g transform="matrix(0.682936,0,0,0.682986,-185.4415,-737.997732)">
        <g transform="matrix(1,0,0,1,121.55309,84.092689)">
            <g transform="matrix(322.211089,0,0,322.211089,504.027306,1240.15748)">
                <path d="M0.242,0.01C0.178,0.01 0.128,-0.013 0.092,-0.06C0.056,-0.106 0.039,-0.172 0.039,-0.258C0.039,-0.344 0.056,-0.41 0.092,-0.457C0.128,-0.504 0.178,-0.527 0.243,-0.527C0.28,-0.527 0.309,-0.519 0.329,-0.502C0.349,-0.485 0.361,-0.459 0.367,-0.424L0.41,-0.424L0.38,-0.258C0.38,-0.308 0.372,-0.345 0.355,-0.368C0.338,-0.391 0.313,-0.403 0.279,-0.403C0.245,-0.403 0.219,-0.39 0.201,-0.365C0.183,-0.34 0.174,-0.304 0.174,-0.258C0.174,-0.211 0.183,-0.175 0.2,-0.151C0.218,-0.127 0.244,-0.115 0.279,-0.115C0.317,-0.115 0.343,-0.126 0.358,-0.149C0.372,-0.172 0.38,-0.208 0.38,-0.258L0.415,-0.094L0.369,-0.094C0.364,-0.059 0.35,-0.033 0.329,-0.016C0.307,0.001 0.278,0.01 0.242,0.01ZM0.399,0.005L0.38,-0.098L0.38,-0.732L0.512,-0.732L0.512,-0L0.399,0.005Z" style="fill-rule:nonzero;"/>
            </g>
            <g transform="matrix(322.211089,0,0,322.211089,663.823868,1240.15748)">
                <path d="M0.261,-0L0.261,-0.488L0.393,-0.488L0.393,-0L0.261,-0ZM0.07,-0L0.07,-0.122L0.271,-0.122L0.271,-0L0.07,-0ZM0.383,-0L0.383,-0.122L0.546,-0.122L0.546,-0L0.383,-0ZM0.099,-0.396L0.099,-0.518L0.393,-0.518L0.393,-0.396L0.099,-0.396ZM0.321,-0.587C0.296,-0.587 0.276,-0.595 0.26,-0.611C0.245,-0.626 0.237,-0.647 0.237,-0.672C0.237,-0.697 0.245,-0.717 0.26,-0.733C0.276,-0.749 0.296,-0.756 0.321,-0.756C0.346,-0.756 0.367,-0.749 0.382,-0.733C0.398,-0.717 0.406,-0.697 0.406,-0.672C0.406,-0.647 0.398,-0.626 0.382,-0.611C0.367,-0.595 0.346,-0.587 0.321,-0.587Z" style="fill-rule:nonzero;"/>
            </g>
            <g transform="matrix(322.211089,0,0,322.211089,823.62043,1240.15748)">
                <path d="M0.089,0.233L0.084,0.118L0.25,0.113C0.296,0.112 0.329,0.099 0.349,0.075C0.37,0.052 0.38,0.016 0.38,-0.03L0.38,-0.408L0.39,-0.518L0.512,-0.518L0.512,-0.046C0.512,0.046 0.491,0.114 0.447,0.158C0.404,0.202 0.335,0.225 0.24,0.229L0.089,0.233ZM0.242,0.01C0.178,0.01 0.128,-0.013 0.092,-0.06C0.056,-0.106 0.039,-0.172 0.039,-0.258C0.039,-0.344 0.056,-0.41 0.092,-0.457C0.128,-0.504 0.178,-0.527 0.243,-0.527C0.282,-0.527 0.312,-0.519 0.332,-0.502C0.353,-0.485 0.366,-0.459 0.372,-0.424L0.41,-0.424L0.38,-0.258C0.38,-0.308 0.372,-0.345 0.355,-0.368C0.338,-0.391 0.313,-0.403 0.279,-0.403C0.245,-0.403 0.219,-0.39 0.201,-0.365C0.183,-0.34 0.174,-0.304 0.174,-0.258C0.174,-0.211 0.183,-0.175 0.2,-0.151C0.218,-0.127 0.244,-0.115 0.279,-0.115C0.317,-0.115 0.343,-0.126 0.358,-0.149C0.372,-0.172 0.38,-0.208 0.38,-0.258L0.415,-0.094L0.369,-0.094C0.364,-0.059 0.35,-0.033 0.329,-0.016C0.307,0.001 0.278,0.01 0.242,0.01Z" style="fill-rule:nonzero;"/>
            </g>
            <g transform="matrix(322.211089,0,0,322.211089,983.416991,1240.15748)">
                <path d="M0.089,0.233L0.084,0.118L0.25,0.113C0.296,0.112 0.329,0.099 0.349,0.075C0.37,0.052 0.38,0.016 0.38,-0.03L0.38,-0.408L0.39,-0.518L0.512,-0.518L0.512,-0.046C0.512,0.046 0.491,0.114 0.447,0.158C0.404,0.202 0.335,0.225 0.24,0.229L0.089,0.233ZM0.242,0.01C0.178,0.01 0.128,-0.013 0.092,-0.06C0.056,-0.106 0.039,-0.172 0.039,-0.258C0.039,-0.344 0.056,-0.41 0.092,-0.457C0.128,-0.504 0.178,-0.527 0.243,-0.527C0.282,-0.527 0.312,-0.519 0.332,-0.502C0.353,-0.485 0.366,-0.459 0.372,-0.424L0.41,-0.424L0.38,-0.258C0.38,-0.308 0.372,-0.345 0.355,-0.368C0.338,-0.391 0.313,-0.403 0.279,-0.403C0.245,-0.403 0.219,-0.39 0.201,-0.365C0.183,-0.34 0.174,-0.304 0.174,-0.258C0.174,-0.211 0.183,-0.175 0.2,-0.151C0.218,-0.127 0.244,-0.115 0.279,-0.115C0.317,-0.115 0.343,-0.126 0.358,-0.149C0.372,-0.172 0.38,-0.208 0.38,-0.258L0.415,-0.094L0.369,-0.094C0.364,-0.059 0.35,-0.033 0.329,-0.016C0.307,0.001 0.278,0.01 0.242,0.01Z" style="fill-rule:nonzero;"/>
            </g>
            <g transform="matrix(322.211089,0,0,322.211089,1143.213553,1240.15748)">
                <path d="M0.028,0.234L0.023,0.12L0.113,0.11C0.143,0.106 0.17,0.098 0.191,0.085C0.213,0.073 0.232,0.054 0.247,0.029C0.263,0.003 0.276,-0.03 0.288,-0.07L0.413,-0.518L0.553,-0.518L0.407,-0.046C0.388,0.016 0.365,0.066 0.34,0.104C0.314,0.142 0.284,0.17 0.25,0.189C0.215,0.208 0.173,0.22 0.125,0.225L0.028,0.234ZM0.192,-0L0.019,-0.518L0.159,-0.518L0.287,-0.112L0.311,-0.112L0.311,-0L0.192,-0Z" style="fill-rule:nonzero;"/>
            </g>
        </g>
        <g transform="matrix(0.450693,0,0,0.450693,270.46182,1056.707805)">
            <g transform="matrix(1,0,0,1,0.852258,76.695076)">
                <path d="M290.076,577.205L178.712,577.205C122.192,577.205 76.305,531.318 76.305,474.798L76.305,444.744C75.514,444.77 74.719,444.783 73.922,444.783C33.968,444.783 1.531,412.346 1.531,372.392C1.531,332.438 33.968,300.001 73.922,300.001C74.719,300.001 75.514,300.014 76.305,300.04L76.305,269.986C76.305,213.466 122.192,167.579 178.712,167.579L261.108,167.579L261.108,144.038C261.108,131.045 271.656,120.496 284.649,120.496L354.935,120.496L354.935,72.265C334.877,66.085 320.282,47.391 320.282,25.316C320.282,-1.793 342.291,-23.802 369.399,-23.802C396.508,-23.802 418.517,-1.793 418.517,25.316C418.517,47.391 403.922,66.085 383.863,72.265L383.863,120.496L454.149,120.496C467.142,120.496 477.691,131.045 477.691,144.038L477.691,167.579L560.087,167.579C616.607,167.579 662.494,213.466 662.494,269.986L662.494,300.001C702.447,300.001 734.884,332.438 734.884,372.392C734.884,412.346 702.447,444.783 662.494,444.783L662.494,474.798C662.494,531.318 616.607,577.205 560.087,577.205L443.956,577.205L443.956,634.514L290.076,634.514L290.076,577.205ZM608.936,272.081C608.936,242.391 584.832,218.286 555.142,218.286L183.657,218.286C153.967,218.286 129.863,242.391 129.863,272.081L129.863,472.704C129.863,502.393 153.967,526.498 183.657,526.498L555.142,526.498C584.832,526.498 608.936,502.393 608.936,472.704L608.936,272.081ZM330.644,372.177C319.942,369.725 304.09,369.653 288.067,373.946C272.044,378.24 258.352,386.228 250.31,393.703C245.877,377.157 260.275,358.901 282.444,352.96C304.613,347.02 326.211,355.631 330.644,372.177ZM403.388,372.177C407.821,355.631 429.419,347.02 451.588,352.96C473.757,358.901 488.155,377.157 483.722,393.703C475.68,386.228 461.988,378.24 445.965,373.946C429.942,369.653 414.09,369.725 403.388,372.177Z" style="fill:rgb(255,63,0);"/>
            </g>
        </g>
    </g>
</svg>
