<?xml version="1.0" encoding="UTF-8" standalone="no"?>
<!DOCTYPE svg PUBLIC "-//W3C//DTD SVG 1.1//EN" "http://www.w3.org/Graphics/SVG/1.1/DTD/svg11.dtd">
<svg width="100%" height="100%" viewBox="0 0 800 262" version="1.1" xmlns="http://www.w3.org/2000/svg" xmlns:xlink="http://www.w3.org/1999/xlink" xml:space="preserve" xmlns:serif="http://www.serif.com/" style="fill-rule:evenodd;clip-rule:evenodd;stroke-linejoin:round;stroke-miterlimit:2;">
    <g id="Grupo_4059" transform="matrix(0.309264,0,0,0.309264,2650.081878,-3374.069802)">
        <g id="path15-4" transform="matrix(1,0,0,1,-8569,9562)">
            <path d="M503.831,1725.14C500.452,1727.128 495.086,1726.929 491.707,1724.94L472.13,1713.313C470.402,1712.176 468.971,1710.643 467.956,1708.841C467.856,1708.741 467.856,1708.641 467.756,1708.541C466.55,1706.697 465.832,1704.577 465.669,1702.38L465.169,1679.524C465.233,1675.256 467.438,1671.293 471.032,1668.99L706.954,1531.55L375.936,1350.99C371.835,1348.947 367.3,1347.924 362.719,1348.009C358.106,1347.924 353.539,1348.947 349.403,1350.99L18.384,1531.45L389.252,1747.3C392.888,1749.495 395.173,1753.39 395.314,1757.635L395.314,2072.554C395.12,2076.835 392.757,2080.734 389.053,2082.889L369.079,2094.019C367.233,2094.955 365.187,2095.433 363.117,2095.41L362.717,2095.41C360.509,2095.552 358.304,2095.07 356.357,2094.019L336.383,2082.889C332.735,2080.692 330.419,2076.808 330.222,2072.554L330.222,1791.82C329.958,1789.59 328.72,1787.587 326.843,1786.354L0,1596.15L0,1968.707C0,1977.055 5.863,1987.29 13.118,1991.563L349.6,2190.015C353.628,2192.181 358.145,2193.276 362.717,2193.195C367.263,2193.325 371.761,2192.226 375.735,2190.015L712.221,1991.56C719.376,1987.287 725.239,1977.051 725.239,1968.704L725.239,1596.147L503.831,1725.14Z" style="fill:url(#_Linear1);fill-rule:nonzero;"/>
        </g>
        <g id="g38" transform="matrix(1,0,0,1,-7701.06,11234.329)">
            <path id="path12" d="M1717.754,12.69C1718.154,12.59 1718.554,12.59 1718.848,12.49L1718.848,284.707L1718.448,284.807L1718.048,284.807C1715.561,282.32 1716.357,279.136 1716.357,276.251C1716.257,232.374 1716.357,188.497 1716.357,144.62L1716.357,21.048C1716.357,18.163 1715.757,15.277 1717.75,12.691L1717.754,12.69Z" style="fill:rgb(65,64,66);fill-rule:nonzero;"/>
            <path id="path16" d="M1717.754,12.69C1717.854,14.779 1717.954,16.869 1717.954,18.859L1717.954,272.867C1717.954,276.847 1718.054,280.827 1718.154,284.806C1718.055,304.735 1714.763,324.519 1708.404,343.406C1699.947,368.578 1685.719,389.571 1663.731,404.893C1647.812,415.937 1630.002,422.503 1610.999,426.085C1592.593,429.567 1574.087,430.065 1555.382,429.567C1528.024,428.777 1500.773,425.783 1473.896,420.613C1471.309,420.113 1470.513,419.22 1470.513,416.633C1470.612,394.346 1470.646,372.06 1470.613,349.773C1470.651,349.362 1470.752,348.959 1470.913,348.579C1472.405,348.279 1473.898,348.879 1475.291,349.179C1505.611,356.675 1536.796,360.088 1568.019,359.327C1580.058,359.027 1591.699,356.939 1602.742,351.865C1620.253,343.706 1630.302,329.976 1633.983,311.172C1634.829,306.31 1635.229,301.381 1635.177,296.447L1635.177,75.371C1635.177,69.899 1635.677,70.894 1630.899,68.904C1621.845,65.123 1612.294,63.432 1602.643,62.735C1588.316,61.74 1573.989,61.541 1559.96,65.023C1532.997,71.689 1514.591,88.205 1505.537,114.273C1497.08,138.55 1498.174,163.025 1508.124,186.605C1519.267,213.07 1540.559,227.398 1568.119,233.268C1577.969,235.357 1588.019,235.556 1598.067,235.258C1601.649,235.158 1601.748,235.158 1601.748,238.84L1601.748,303.81C1601.748,307.193 1601.648,307.392 1598.465,307.591C1563.145,310.178 1528.819,306.497 1496.782,290.18C1460.964,272.072 1437.182,243.418 1425.445,205.212C1415.098,171.285 1413.008,136.661 1420.769,101.937C1432.012,51.892 1462.755,18.462 1510.413,0.254C1527.865,-6.343 1546.213,-10.267 1564.836,-11.387C1617.269,-14.77 1668.409,-6.313 1717.758,12.691L1717.754,12.69Z" style="fill:rgb(65,64,66);fill-rule:nonzero;"/>
            <g id="path18" transform="matrix(1,0,0,1,-1257.285,-1565.303)">
                <path d="M2069.644,1421.968C2066.054,1421.933 2066.358,1422.107 2066.358,1427.156L2066.358,1557.494C2066.358,1559.384 2066.758,1561.275 2065.758,1563.364C2055.211,1558.887 2044.168,1556.797 2032.826,1555.504C2007.654,1552.818 1982.582,1553.813 1958.106,1560.778C1906.767,1575.404 1871.944,1607.838 1855.727,1658.978C1844.982,1693.005 1844.483,1727.63 1852.94,1762.154C1862.889,1802.847 1886.469,1833.291 1923.581,1853.09C1949.449,1866.92 1977.408,1873.29 2006.46,1874.681C2044.86,1876.571 2083.07,1873.481 2120.977,1867.019C2129.434,1865.527 2137.792,1863.638 2146.15,1861.648C2148.438,1861.148 2149.433,1860.056 2149.135,1857.768C2149.085,1856.973 2149.085,1856.175 2149.135,1855.38L2149.135,1427.555C2149.135,1426.361 2149.035,1425.266 2149.135,1424.172C2149.235,1422.481 2148.435,1421.885 2146.846,1421.984C2145.885,1422.034 2144.922,1422.034 2143.961,1421.984L2071.429,1421.984C2070.745,1421.984 2070.154,1421.973 2069.641,1421.968L2069.644,1421.968ZM2018.509,1627.188C2033.039,1627.292 2047.443,1629.901 2061.086,1634.901C2067.453,1637.189 2066.259,1636.692 2066.259,1642.264C2066.358,1667.834 2066.392,1693.437 2066.359,1719.073L2066.359,1794.988C2066.309,1795.949 2066.309,1796.911 2066.359,1797.872C2066.659,1800.359 2065.464,1801.156 2063.176,1801.554C2055.464,1802.786 2047.693,1803.616 2039.894,1804.041C2023.477,1804.941 2007.16,1804.441 1991.241,1799.564C1958.109,1789.416 1939.107,1766.929 1933.241,1733.101C1930.157,1715.491 1930.754,1697.881 1936.226,1680.668C1945.18,1653.009 1964.283,1635.995 1992.539,1629.926C2001.074,1628.083 2009.782,1627.165 2018.514,1627.188L2018.509,1627.188Z" style="fill:rgb(65,64,66);fill-rule:nonzero;"/>
            </g>
            <g id="path20" transform="matrix(1,0,0,1,-1257.285,-1565.303)">
                <path d="M1655.988,1554.982C1642.5,1555.091 1629.031,1555.997 1615.65,1557.697C1592.123,1560.624 1569.098,1566.714 1547.2,1575.8C1544.414,1576.894 1543.418,1578.188 1543.418,1581.272C1543.518,1602.962 1543.518,1624.553 1543.518,1646.242C1543.518,1647.336 1543.118,1648.43 1544.218,1649.524C1546.307,1648.724 1548.396,1648.031 1550.386,1647.136C1582.125,1633.804 1614.957,1625.746 1649.486,1625.448C1659.037,1625.348 1668.586,1624.948 1678.042,1626.641C1690.678,1628.83 1701.821,1633.805 1710.477,1643.456C1720.227,1654.201 1724.604,1667.335 1727.191,1681.563C1724.903,1682.463 1723.213,1682.163 1721.322,1682.163C1694.459,1682.263 1667.494,1682.163 1640.631,1682.363C1623.22,1682.463 1606.009,1684.851 1589.493,1690.622C1568.301,1698.084 1550.393,1710.022 1539.148,1730.022C1524.92,1755.492 1522.433,1782.554 1531.587,1810.214C1538.75,1832.003 1553.775,1847.823 1573.275,1859.364C1596.159,1872.895 1621.231,1878.364 1647.497,1879.864C1657.048,1880.364 1666.597,1880.164 1676.152,1880.064C1698.11,1879.95 1720.04,1878.488 1741.818,1875.686C1763.087,1872.755 1784.13,1868.367 1804.797,1862.552C1810.966,1860.861 1810.17,1862.352 1810.17,1855.788L1810.17,1726.339C1810.17,1713.902 1810.07,1701.465 1808.977,1689.128C1807.286,1671.517 1804.201,1654.205 1798.132,1637.49C1784.899,1601.175 1760.424,1576.201 1723.412,1563.964C1705.901,1558.193 1687.792,1555.706 1669.485,1555.109C1664.983,1554.985 1660.487,1554.943 1655.997,1554.983L1655.988,1554.982ZM1653.847,1748.782C1663.501,1748.768 1673.183,1748.825 1682.809,1748.825C1682.909,1748.925 1724.399,1748.825 1724.399,1748.825C1727.981,1748.825 1728.08,1748.925 1728.08,1752.505L1728.08,1804.541C1728.08,1810.113 1728.08,1810.112 1722.509,1810.709C1705.28,1812.783 1687.908,1813.415 1670.574,1812.6C1659.918,1812.236 1649.337,1810.668 1639.033,1807.924C1631.67,1805.835 1624.607,1803.048 1618.439,1798.173C1611.574,1792.8 1607.494,1785.835 1607.096,1776.98C1606.596,1766.235 1611.175,1758.375 1621.025,1753.599C1628.388,1750.117 1636.248,1748.924 1644.208,1748.824C1647.417,1748.799 1650.63,1748.785 1653.849,1748.781L1653.847,1748.782Z" style="fill:rgb(65,64,66);fill-rule:nonzero;"/>
            </g>
            <g id="path22" transform="matrix(1,0,0,1,-1257.285,-1565.303)">
                <path d="M2483.639,1555.211C2469.183,1555.298 2454.788,1557.101 2440.757,1560.582C2391.507,1573.715 2355.988,1603.167 2336.786,1650.725C2322.857,1685.249 2320.967,1721.066 2329.722,1757.082C2342.258,1809.018 2373.599,1845.433 2423.744,1864.337C2463.044,1879.162 2503.239,1879.261 2542.937,1865.431C2588.903,1849.412 2620.344,1818.072 2636.263,1772.006C2648.799,1735.89 2648.998,1699.078 2637.755,1662.664C2625.318,1622.464 2600.047,1592.421 2562.538,1573.119C2538.262,1560.682 2512.293,1555.509 2483.638,1555.21L2483.639,1555.211ZM2483.991,1626.973C2486.895,1626.95 2489.799,1627.074 2492.691,1627.344C2520.748,1629.931 2547.612,1647.644 2557.661,1684.553C2558.837,1689.009 2559.767,1693.526 2560.446,1698.084C2561.223,1702.989 2561.655,1707.943 2561.74,1712.909C2561.54,1732.109 2559.054,1748.128 2551.293,1763.053C2536.668,1791.409 2512.987,1804.543 2481.348,1803.647C2448.117,1802.652 2423.84,1782.256 2414.19,1753.303C2404.837,1725.246 2405.136,1697.287 2417.175,1670.025C2429.888,1641.262 2456.085,1627.207 2483.989,1626.972L2483.991,1626.973Z" style="fill:rgb(65,64,66);fill-rule:nonzero;"/>
            </g>
            <path id="path24" d="M36.7,347.189C45.462,349.813 54.408,351.776 63.464,353.059C77.493,354.85 91.621,356.243 105.848,354.551C116.295,353.258 126.048,350.074 134.005,342.91C141.962,335.746 145.845,326.593 147.735,316.246C148.466,311.54 148.798,306.78 148.73,302.018L148.73,5.427C148.73,-1.637 147.83,-0.642 154.799,-0.642L226.435,-0.642C227.529,-0.642 228.624,-0.542 229.818,-0.642C231.708,-0.742 232.405,0.158 232.305,1.945C232.205,3.039 232.305,4.134 232.305,5.328L232.305,306.2C232.305,323.711 230.912,341.122 225.838,358.136C215.69,391.665 193.204,412.659 159.973,422.509C147.116,426.153 133.909,428.421 120.573,429.275C94.108,431.165 67.841,428.875 41.573,425.196C41.264,425.178 40.96,425.11 40.673,424.996C36.992,424.296 36.892,424.296 36.892,420.519L36.892,357.935C36.692,354.453 36.692,351.169 36.692,347.19L36.7,347.189Z" style="fill:rgb(65,64,66);fill-rule:nonzero;"/>
            <path id="path26" d="M1030.25,81.739L1030.25,300.427C1030.25,306.695 1031.444,306.297 1024.479,306.297L949.959,306.297C948.268,306.397 947.671,305.497 947.77,303.909L947.77,-139.635C947.87,-143.217 947.87,-143.316 951.451,-143.316L1025.475,-143.316C1030.947,-143.316 1030.251,-143.716 1030.251,-138.441L1030.251,81.739L1030.25,81.739Z" style="fill:rgb(65,64,66);fill-rule:nonzero;"/>
            <path id="path28" d="M232.111,-81.332C231.611,-58.249 213.111,-40.141 190.423,-40.539C166.942,-40.939 149.033,-59.639 149.531,-83.122C150.11,-105.306 168.517,-123.24 190.709,-123.24C191.111,-123.24 191.513,-123.234 191.915,-123.222C214.401,-122.622 232.608,-103.822 232.115,-81.335L232.111,-81.332Z" style="fill:rgb(65,64,66);fill-rule:nonzero;"/>
        </g>
    </g>
    <defs>
        <linearGradient id="_Linear1" x1="0" y1="0" x2="1" y2="0" gradientUnits="userSpaceOnUse" gradientTransform="matrix(369.87189,-310.188836,310.188836,369.87189,368.421412,1086.836926)"><stop offset="0" style="stop-color:rgb(192,13,62);stop-opacity:1"/><stop offset="0.3" style="stop-color:rgb(207,19,60);stop-opacity:1"/><stop offset="0.73" style="stop-color:rgb(224,24,55);stop-opacity:1"/><stop offset="1" style="stop-color:rgb(231,26,52);stop-opacity:1"/></linearGradient>
    </defs>
</svg>
