<?xml version="1.0" encoding="UTF-8" standalone="no"?>
<!DOCTYPE svg PUBLIC "-//W3C//DTD SVG 1.1//EN" "http://www.w3.org/Graphics/SVG/1.1/DTD/svg11.dtd">
<svg width="100%" height="100%" viewBox="0 0 800 120" version="1.1" xmlns="http://www.w3.org/2000/svg" xmlns:xlink="http://www.w3.org/1999/xlink" xml:space="preserve" xmlns:serif="http://www.serif.com/" style="fill-rule:evenodd;clip-rule:evenodd;stroke-linejoin:round;stroke-miterlimit:2;">
    <g transform="matrix(0.447311,0,0,0.447311,-293.716941,-680.480707)">
        <g transform="matrix(1,0,0,1,490.294832,-181.056523)">
            <g transform="matrix(310.921329,0,0,310.921329,329.518403,1906.702069)">
                <path d="M0.072,-0L0.072,-0.538L0.221,-0.538L0.221,-0.386L0.2,-0.43C0.216,-0.468 0.242,-0.497 0.277,-0.516C0.312,-0.536 0.355,-0.546 0.406,-0.546L0.406,-0.402C0.4,-0.403 0.393,-0.403 0.388,-0.404C0.383,-0.404 0.377,-0.404 0.371,-0.404C0.328,-0.404 0.294,-0.392 0.267,-0.368C0.241,-0.343 0.228,-0.305 0.228,-0.254L0.228,-0L0.072,-0Z" style="fill-rule:nonzero;"/>
            </g>
            <g transform="matrix(310.921329,0,0,310.921329,428.391386,1906.702069)">
                <path d="M0.339,0.008C0.277,0.008 0.224,-0.004 0.177,-0.028C0.131,-0.052 0.096,-0.085 0.07,-0.127C0.045,-0.168 0.032,-0.216 0.032,-0.269C0.032,-0.323 0.045,-0.371 0.07,-0.412C0.094,-0.454 0.129,-0.487 0.172,-0.51C0.215,-0.534 0.264,-0.546 0.319,-0.546C0.372,-0.546 0.419,-0.534 0.461,-0.512C0.504,-0.49 0.537,-0.458 0.562,-0.416C0.586,-0.375 0.599,-0.325 0.599,-0.267C0.599,-0.261 0.599,-0.254 0.598,-0.246C0.598,-0.239 0.597,-0.232 0.596,-0.225L0.159,-0.225L0.159,-0.316L0.514,-0.316L0.454,-0.289C0.454,-0.317 0.448,-0.341 0.437,-0.362C0.425,-0.383 0.41,-0.399 0.39,-0.411C0.37,-0.422 0.346,-0.428 0.32,-0.428C0.293,-0.428 0.27,-0.422 0.249,-0.411C0.229,-0.399 0.213,-0.383 0.202,-0.362C0.191,-0.341 0.185,-0.316 0.185,-0.287L0.185,-0.263C0.185,-0.233 0.192,-0.208 0.205,-0.186C0.218,-0.163 0.236,-0.146 0.26,-0.135C0.284,-0.123 0.311,-0.117 0.343,-0.117C0.372,-0.117 0.397,-0.121 0.418,-0.13C0.44,-0.138 0.46,-0.151 0.478,-0.169L0.561,-0.079C0.536,-0.051 0.505,-0.029 0.468,-0.015C0.431,0 0.388,0.008 0.339,0.008Z" style="fill-rule:nonzero;"/>
            </g>
            <g transform="matrix(310.921329,0,0,310.921329,592.246926,1906.702069)">
                <path d="M0.292,0.008C0.229,0.008 0.179,-0.008 0.144,-0.041C0.109,-0.073 0.091,-0.121 0.091,-0.185L0.091,-0.657L0.247,-0.657L0.247,-0.187C0.247,-0.165 0.253,-0.147 0.265,-0.135C0.277,-0.122 0.293,-0.116 0.314,-0.116C0.339,-0.116 0.36,-0.122 0.377,-0.136L0.419,-0.026C0.403,-0.014 0.384,-0.006 0.362,-0.001C0.339,0.005 0.316,0.008 0.292,0.008ZM0.008,-0.418L0.008,-0.538L0.381,-0.538L0.381,-0.418L0.008,-0.418Z" style="fill-rule:nonzero;"/>
            </g>
            <g transform="matrix(310.921329,0,0,310.921329,695.161886,1906.702069)">
                <path d="M0.072,-0L0.072,-0.538L0.221,-0.538L0.221,-0.386L0.2,-0.43C0.216,-0.468 0.242,-0.497 0.277,-0.516C0.312,-0.536 0.355,-0.546 0.406,-0.546L0.406,-0.402C0.4,-0.403 0.393,-0.403 0.388,-0.404C0.383,-0.404 0.377,-0.404 0.371,-0.404C0.328,-0.404 0.294,-0.392 0.267,-0.368C0.241,-0.343 0.228,-0.305 0.228,-0.254L0.228,-0L0.072,-0Z" style="fill-rule:nonzero;"/>
            </g>
            <g transform="matrix(310.921329,0,0,310.921329,794.034869,1906.702069)">
                <path d="M0.328,0.008C0.271,0.008 0.22,-0.004 0.176,-0.028C0.131,-0.052 0.096,-0.084 0.071,-0.126C0.045,-0.168 0.032,-0.216 0.032,-0.269C0.032,-0.323 0.045,-0.371 0.071,-0.413C0.096,-0.454 0.131,-0.487 0.176,-0.51C0.22,-0.534 0.27,-0.546 0.328,-0.546C0.385,-0.546 0.436,-0.534 0.48,-0.51C0.525,-0.487 0.559,-0.454 0.585,-0.413C0.61,-0.371 0.623,-0.323 0.623,-0.269C0.623,-0.215 0.61,-0.168 0.585,-0.126C0.56,-0.084 0.525,-0.052 0.48,-0.028C0.435,-0.004 0.385,0.008 0.328,0.008ZM0.328,-0.12C0.354,-0.12 0.377,-0.126 0.398,-0.138C0.418,-0.15 0.435,-0.167 0.447,-0.189C0.459,-0.212 0.465,-0.239 0.465,-0.269C0.465,-0.3 0.459,-0.327 0.447,-0.349C0.435,-0.371 0.418,-0.388 0.398,-0.4C0.377,-0.412 0.354,-0.418 0.328,-0.418C0.302,-0.418 0.278,-0.412 0.258,-0.4C0.237,-0.388 0.221,-0.371 0.209,-0.349C0.196,-0.327 0.19,-0.3 0.19,-0.269C0.19,-0.239 0.196,-0.212 0.209,-0.189C0.221,-0.167 0.237,-0.15 0.258,-0.138C0.278,-0.126 0.302,-0.12 0.328,-0.12Z" style="fill-rule:nonzero;"/>
            </g>
            <g transform="matrix(310.921329,0,0,310.921329,965.352521,1906.702069)">
                <path d="M0.325,0.202C0.274,0.202 0.225,0.195 0.178,0.183C0.131,0.171 0.092,0.152 0.061,0.128L0.123,0.016C0.146,0.034 0.175,0.049 0.209,0.06C0.244,0.071 0.279,0.077 0.313,0.077C0.369,0.077 0.409,0.065 0.434,0.04C0.459,0.015 0.471,-0.021 0.471,-0.07L0.471,-0.151L0.481,-0.286L0.479,-0.422L0.479,-0.538L0.627,-0.538L0.627,-0.09C0.627,0.01 0.601,0.083 0.549,0.131C0.497,0.178 0.422,0.202 0.325,0.202ZM0.301,-0.026C0.251,-0.026 0.206,-0.037 0.166,-0.058C0.125,-0.08 0.093,-0.11 0.069,-0.149C0.045,-0.188 0.032,-0.234 0.032,-0.286C0.032,-0.339 0.045,-0.384 0.069,-0.423C0.093,-0.462 0.125,-0.492 0.166,-0.514C0.206,-0.535 0.251,-0.546 0.301,-0.546C0.347,-0.546 0.387,-0.536 0.421,-0.518C0.455,-0.5 0.482,-0.472 0.502,-0.433C0.521,-0.395 0.531,-0.346 0.531,-0.286C0.531,-0.227 0.521,-0.178 0.502,-0.139C0.482,-0.101 0.455,-0.072 0.421,-0.054C0.387,-0.035 0.347,-0.026 0.301,-0.026ZM0.332,-0.153C0.36,-0.153 0.384,-0.159 0.405,-0.17C0.427,-0.181 0.443,-0.197 0.455,-0.217C0.467,-0.237 0.473,-0.26 0.473,-0.286C0.473,-0.313 0.467,-0.336 0.455,-0.356C0.443,-0.375 0.427,-0.391 0.405,-0.402C0.384,-0.412 0.36,-0.418 0.332,-0.418C0.305,-0.418 0.281,-0.412 0.259,-0.402C0.238,-0.391 0.221,-0.375 0.208,-0.356C0.196,-0.336 0.19,-0.313 0.19,-0.286C0.19,-0.26 0.196,-0.237 0.208,-0.217C0.221,-0.197 0.238,-0.181 0.259,-0.17C0.281,-0.159 0.305,-0.153 0.332,-0.153Z" style="fill-rule:nonzero;"/>
            </g>
            <g transform="matrix(310.921329,0,0,310.921329,1150.661633,1906.702069)">
                <path d="M0.402,-0L0.402,-0.105L0.392,-0.128L0.392,-0.316C0.392,-0.35 0.382,-0.376 0.362,-0.394C0.341,-0.412 0.31,-0.422 0.268,-0.422C0.239,-0.422 0.211,-0.417 0.184,-0.408C0.156,-0.399 0.132,-0.387 0.113,-0.372L0.057,-0.481C0.086,-0.502 0.122,-0.518 0.163,-0.529C0.204,-0.54 0.246,-0.546 0.289,-0.546C0.371,-0.546 0.435,-0.526 0.48,-0.488C0.526,-0.449 0.548,-0.389 0.548,-0.307L0.548,-0L0.402,-0ZM0.238,0.008C0.196,0.008 0.16,0.001 0.13,-0.014C0.1,-0.028 0.077,-0.047 0.061,-0.072C0.045,-0.096 0.037,-0.124 0.037,-0.155C0.037,-0.187 0.045,-0.215 0.061,-0.239C0.076,-0.263 0.101,-0.282 0.135,-0.295C0.169,-0.309 0.214,-0.316 0.268,-0.316L0.411,-0.316L0.411,-0.225L0.285,-0.225C0.249,-0.225 0.223,-0.219 0.21,-0.207C0.196,-0.195 0.189,-0.18 0.189,-0.162C0.189,-0.142 0.197,-0.126 0.213,-0.115C0.228,-0.103 0.249,-0.097 0.277,-0.097C0.303,-0.097 0.326,-0.103 0.347,-0.115C0.368,-0.127 0.383,-0.146 0.392,-0.17L0.416,-0.098C0.405,-0.063 0.384,-0.037 0.354,-0.019C0.324,-0.001 0.285,0.008 0.238,0.008Z" style="fill-rule:nonzero;"/>
            </g>
            <g transform="matrix(310.921329,0,0,310.921329,1310.164274,1906.702069)">
                <path d="M0.072,-0L0.072,-0.538L0.221,-0.538L0.221,-0.391L0.193,-0.434C0.211,-0.471 0.238,-0.498 0.272,-0.517C0.307,-0.536 0.346,-0.546 0.39,-0.546C0.439,-0.546 0.482,-0.533 0.519,-0.508C0.556,-0.484 0.581,-0.445 0.593,-0.394L0.538,-0.409C0.556,-0.451 0.585,-0.484 0.624,-0.509C0.664,-0.533 0.709,-0.546 0.761,-0.546C0.804,-0.546 0.842,-0.537 0.875,-0.52C0.908,-0.504 0.934,-0.478 0.952,-0.443C0.971,-0.408 0.981,-0.363 0.981,-0.308L0.981,-0L0.825,-0L0.825,-0.284C0.825,-0.328 0.816,-0.36 0.798,-0.38C0.78,-0.401 0.755,-0.411 0.723,-0.411C0.7,-0.411 0.679,-0.406 0.661,-0.396C0.643,-0.385 0.629,-0.37 0.619,-0.349C0.609,-0.329 0.604,-0.302 0.604,-0.27L0.604,-0L0.448,-0L0.448,-0.284C0.448,-0.328 0.44,-0.36 0.422,-0.38C0.404,-0.401 0.379,-0.411 0.346,-0.411C0.323,-0.411 0.303,-0.406 0.285,-0.396C0.267,-0.385 0.253,-0.37 0.243,-0.349C0.233,-0.329 0.228,-0.302 0.228,-0.27L0.228,-0L0.072,-0Z" style="fill-rule:nonzero;"/>
            </g>
            <g transform="matrix(310.921329,0,0,310.921329,1605.228616,1906.702069)">
                <path d="M0.339,0.008C0.277,0.008 0.224,-0.004 0.177,-0.028C0.131,-0.052 0.096,-0.085 0.07,-0.127C0.045,-0.168 0.032,-0.216 0.032,-0.269C0.032,-0.323 0.045,-0.371 0.07,-0.412C0.094,-0.454 0.129,-0.487 0.172,-0.51C0.215,-0.534 0.264,-0.546 0.319,-0.546C0.372,-0.546 0.419,-0.534 0.461,-0.512C0.504,-0.49 0.537,-0.458 0.562,-0.416C0.586,-0.375 0.599,-0.325 0.599,-0.267C0.599,-0.261 0.599,-0.254 0.598,-0.246C0.598,-0.239 0.597,-0.232 0.596,-0.225L0.159,-0.225L0.159,-0.316L0.514,-0.316L0.454,-0.289C0.454,-0.317 0.448,-0.341 0.437,-0.362C0.425,-0.383 0.41,-0.399 0.39,-0.411C0.37,-0.422 0.346,-0.428 0.32,-0.428C0.293,-0.428 0.27,-0.422 0.249,-0.411C0.229,-0.399 0.213,-0.383 0.202,-0.362C0.191,-0.341 0.185,-0.316 0.185,-0.287L0.185,-0.263C0.185,-0.233 0.192,-0.208 0.205,-0.186C0.218,-0.163 0.236,-0.146 0.26,-0.135C0.284,-0.123 0.311,-0.117 0.343,-0.117C0.372,-0.117 0.397,-0.121 0.418,-0.13C0.44,-0.138 0.46,-0.151 0.478,-0.169L0.561,-0.079C0.536,-0.051 0.505,-0.029 0.468,-0.015C0.431,0 0.388,0.008 0.339,0.008Z" style="fill-rule:nonzero;"/>
            </g>
            <g transform="matrix(310.921329,0,0,310.921329,1769.084156,1906.702069)">
                <path d="M0.072,-0L0.072,-0.538L0.221,-0.538L0.221,-0.386L0.2,-0.43C0.216,-0.468 0.242,-0.497 0.277,-0.516C0.312,-0.536 0.355,-0.546 0.406,-0.546L0.406,-0.402C0.4,-0.403 0.393,-0.403 0.388,-0.404C0.383,-0.404 0.377,-0.404 0.371,-0.404C0.328,-0.404 0.294,-0.392 0.267,-0.368C0.241,-0.343 0.228,-0.305 0.228,-0.254L0.228,-0L0.072,-0Z" style="fill-rule:nonzero;"/>
            </g>
            <g transform="matrix(310.921329,0,0,310.921329,1903.091249,1906.702069)">
            </g>
        </g>
        <g transform="matrix(1,0,0,1,1402.544009,91.051599)">
            <g transform="matrix(83.333333,0,0,83.333333,980.440881,1488.901967)">
                <path d="M0.391,0.003C0.341,0.003 0.295,-0.006 0.252,-0.024C0.21,-0.042 0.172,-0.067 0.14,-0.1C0.108,-0.132 0.083,-0.169 0.066,-0.212C0.048,-0.255 0.039,-0.301 0.039,-0.35C0.039,-0.399 0.048,-0.445 0.066,-0.488C0.084,-0.531 0.109,-0.568 0.141,-0.601C0.173,-0.633 0.211,-0.658 0.254,-0.676C0.297,-0.694 0.343,-0.703 0.393,-0.703C0.443,-0.703 0.49,-0.694 0.533,-0.676C0.576,-0.659 0.613,-0.634 0.645,-0.602C0.676,-0.57 0.701,-0.533 0.719,-0.49C0.736,-0.448 0.745,-0.402 0.745,-0.352C0.745,-0.302 0.736,-0.256 0.718,-0.212C0.7,-0.169 0.675,-0.132 0.643,-0.1C0.61,-0.067 0.573,-0.042 0.53,-0.024C0.488,-0.006 0.441,0.003 0.391,0.003ZM0.485,-0.156L0.389,-0.304L0.493,-0.304L0.589,-0.156L0.485,-0.156ZM0.391,-0.062C0.432,-0.062 0.469,-0.07 0.504,-0.084C0.539,-0.099 0.569,-0.12 0.595,-0.146C0.621,-0.172 0.641,-0.203 0.655,-0.238C0.669,-0.273 0.677,-0.311 0.677,-0.352C0.677,-0.393 0.67,-0.431 0.655,-0.465C0.641,-0.5 0.622,-0.531 0.596,-0.556C0.571,-0.582 0.541,-0.602 0.507,-0.616C0.472,-0.631 0.435,-0.638 0.393,-0.638C0.352,-0.638 0.314,-0.631 0.279,-0.616C0.244,-0.602 0.214,-0.581 0.189,-0.555C0.163,-0.529 0.143,-0.498 0.129,-0.463C0.115,-0.428 0.108,-0.391 0.108,-0.35C0.108,-0.31 0.115,-0.272 0.129,-0.237C0.143,-0.202 0.163,-0.171 0.188,-0.145C0.214,-0.119 0.244,-0.098 0.278,-0.084C0.313,-0.069 0.351,-0.062 0.391,-0.062ZM0.239,-0.156L0.239,-0.544L0.408,-0.544C0.461,-0.544 0.502,-0.532 0.532,-0.507C0.562,-0.482 0.577,-0.449 0.577,-0.406C0.577,-0.362 0.562,-0.328 0.532,-0.304C0.502,-0.28 0.461,-0.268 0.408,-0.268L0.343,-0.268L0.343,-0.156L0.239,-0.156ZM0.342,-0.346L0.401,-0.346C0.424,-0.346 0.443,-0.351 0.456,-0.362C0.469,-0.372 0.475,-0.387 0.475,-0.406C0.475,-0.426 0.469,-0.441 0.456,-0.451C0.443,-0.462 0.424,-0.467 0.401,-0.467L0.342,-0.467L0.342,-0.346Z" style="fill-rule:nonzero;"/>
            </g>
            <g transform="matrix(83.333333,0,0,83.333333,1045.857548,1488.901967)">
            </g>
        </g>
        <g transform="matrix(0.567492,0,-0,0.651729,174.040554,1300.972843)">
            <path d="M934.505,425.238L934.505,617.543C934.505,635.22 918.023,649.572 897.721,649.572L887.169,649.572C866.868,649.572 850.386,635.22 850.386,617.543L850.386,425.238C850.386,407.561 866.868,393.209 887.169,393.209L897.721,393.209C918.023,393.209 934.505,407.561 934.505,425.238Z" style="fill:rgb(255,30,96);"/>
        </g>
        <g transform="matrix(0.567492,0,-0,0.651729,236.008356,1300.972843)">
            <path d="M934.505,425.238L934.505,617.543C934.505,635.22 918.023,649.572 897.721,649.572L887.169,649.572C866.868,649.572 850.386,635.22 850.386,617.543L850.386,425.238C850.386,407.561 866.868,393.209 887.169,393.209L897.721,393.209C918.023,393.209 934.505,407.561 934.505,425.238Z" style="fill:rgb(63,255,99);"/>
        </g>
        <g transform="matrix(0.567492,0,-0,0.650584,298.093003,1301.422999)">
            <path d="M934.505,425.295L934.505,617.486C934.505,635.195 918.023,649.572 897.721,649.572L887.169,649.572C866.868,649.572 850.386,635.195 850.386,617.486L850.386,425.295C850.386,407.586 866.868,393.209 887.169,393.209L897.721,393.209C918.023,393.209 934.505,407.586 934.505,425.295Z" style="fill:rgb(63,152,255);"/>
        </g>
    </g>
</svg>
