<?xml version="1.0" encoding="UTF-8" standalone="no"?>
<!DOCTYPE svg PUBLIC "-//W3C//DTD SVG 1.1//EN" "http://www.w3.org/Graphics/SVG/1.1/DTD/svg11.dtd">
<svg width="100%" height="100%" viewBox="0 0 800 235" version="1.1" xmlns="http://www.w3.org/2000/svg" xmlns:xlink="http://www.w3.org/1999/xlink" xml:space="preserve" xmlns:serif="http://www.serif.com/" style="fill-rule:evenodd;clip-rule:evenodd;stroke-linejoin:round;stroke-miterlimit:2;">
    <g id="menu" transform="matrix(5.333345,0,0,5.333345,-426.667601,-134.285417)">
        <g id="Brand" transform="matrix(1,0,0,1,0,25)">
            <g id="logo-vrum" transform="matrix(1,0,0,1,80,0)">
                <path id="Shape" d="M149.221,3.075C147.841,0.713 145.113,-0.215 142.54,0.33C117.048,5.756 105.419,7.96 82.379,12.555C80.751,17 79.104,21.5 77.442,26.065C75.295,31.96 73.14,37.96 70.931,44.068L86.72,44.068C88.351,39.233 89.964,34.46 91.561,29.756C93.148,25.079 93.99,23.364 95.548,18.812C96.152,17.043 97.361,16.048 99.205,15.814C101.307,15.548 102.069,16.304 101.479,18.07C99.923,22.744 99.077,24.577 97.477,29.379C95.87,34.205 94.26,39.102 92.616,44.068L110.91,44.068C112.562,38.653 114.173,33.321 115.767,28.066C117.349,22.853 118.195,20.614 119.742,15.547C120.342,13.581 121.771,12.458 124.019,12.177C126.64,11.847 127.702,12.659 127.114,14.637C125.566,19.845 124.748,22.242 123.164,27.598C121.564,33.007 119.946,38.496 118.312,44.068L140.29,44.068C141.906,37.815 143.493,31.655 145.055,25.599C146.598,19.621 148.104,14.885 149.6,9.085C150.241,6.599 150.108,4.59 149.221,3.075ZM79.845,12.932C75.516,13.736 66.839,15.147 66.839,15.147C66.839,15.147 64.753,20.485 63.711,23.188C62.203,27.102 60.677,31.067 59.131,35.081C58.518,36.665 57.556,37.479 56.237,37.522C54.826,37.569 54.407,36.828 55.001,35.308C56.53,31.375 58.045,27.476 59.553,23.634C60.603,20.959 61.646,18.307 62.688,15.672C58.442,16.226 55.372,16.796 51.11,17.304L47.926,25.081C46.437,28.723 44.938,32.414 43.429,36.14C42.355,38.791 42.194,40.79 42.995,42.116C43.636,43.18 44.891,43.831 46.777,44.067L68.432,44.067C70.621,38.034 72.794,32.1 74.926,26.274C76.576,21.767 78.221,17.322 79.845,12.932ZM35.224,26.153L46.123,25.31C46.248,25.006 46.229,25.045 46.668,23.921C47.414,22.006 47.664,20.174 47.538,19.559C47.263,17.767 45.804,17.967 45.545,17.996C41.226,18.491 36.892,18.946 32.554,19.386C32.301,19.424 31.746,19.532 31.285,19.783C30.226,20.36 29.76,21.263 29.76,21.263L30.539,19.591C28.86,19.758 27.179,19.924 25.497,20.089C23.902,23.705 22.298,27.355 20.682,31.041C18.8,35.332 16.886,39.674 14.96,44.07L24.109,44.07C25.569,40.644 27.012,37.251 28.447,33.894C29.877,30.548 30.753,28.627 32.159,25.346C32.649,24.203 33.491,23.554 34.704,23.399C35.919,23.246 36.288,23.751 35.794,24.917C35.194,26.341 35.33,25.948 35.224,26.153ZM23.939,20.251C21.606,20.477 19.274,20.707 16.931,20.914C15.444,23.736 13.964,26.567 12.479,29.411C10.782,32.65 9.077,35.902 7.35,39.181C7.318,39.183 7.287,39.181 7.271,39.183C8.402,35.944 9.523,32.747 10.638,29.587C11.636,26.759 12.626,23.959 13.613,21.189C11.425,21.376 9.233,21.55 7.048,21.733C5.937,25.248 4.815,28.826 3.664,32.458C2.458,36.259 1.236,40.129 0,44.068L9.841,44.068C12.362,39.811 14.852,35.553 17.354,31.331C19.548,27.621 21.744,23.936 23.939,20.251Z" style="fill:url(#_Linear1);fill-rule:nonzero;"/>
            </g>
        </g>
    </g>
    <defs>
        <linearGradient id="_Linear1" x1="0" y1="0" x2="1" y2="0" gradientUnits="userSpaceOnUse" gradientTransform="matrix(0,-43.891341,43.891341,0,74.99996,44.06989)"><stop offset="0" style="stop-color:rgb(181,38,20);stop-opacity:1"/><stop offset="0.18" style="stop-color:rgb(186,61,18);stop-opacity:1"/><stop offset="0.35" style="stop-color:rgb(187,67,18);stop-opacity:1"/><stop offset="0.52" style="stop-color:rgb(193,86,15);stop-opacity:1"/><stop offset="0.69" style="stop-color:rgb(199,103,10);stop-opacity:1"/><stop offset="0.85" style="stop-color:rgb(207,124,1);stop-opacity:1"/><stop offset="1" style="stop-color:rgb(228,176,35);stop-opacity:1"/></linearGradient>
    </defs>
</svg>
