<?xml version="1.0" encoding="UTF-8" standalone="no"?><!DOCTYPE svg PUBLIC "-//W3C//DTD SVG 1.1//EN" "http://www.w3.org/Graphics/SVG/1.1/DTD/svg11.dtd"><svg width="100%" height="100%" viewBox="0 0 384 384" version="1.1" xmlns="http://www.w3.org/2000/svg" xmlns:xlink="http://www.w3.org/1999/xlink" xml:space="preserve" xmlns:serif="http://www.serif.com/" style="fill-rule:evenodd;clip-rule:evenodd;stroke-linejoin:round;stroke-miterlimit:2;"><g><path d="M303.714,260.657c6.943,2.913 10.415,8.066 10.415,15.461l0,76.295c0,3.585 -0.84,6.442 -2.52,8.571c-1.68,2.129 -3.864,3.193 -6.551,3.193c-1.792,0 -4.032,-0.56 -6.719,-1.68l-288.259,-134.44c-6.719,-3.137 -10.079,-8.402 -10.079,-15.797l0,-46.382c0,-7.618 3.36,-12.884 10.079,-15.797l288.259,-133.767c2.688,-1.12 4.928,-1.68 6.719,-1.68c2.688,0 4.872,1.064 6.551,3.193c1.68,2.129 2.52,4.985 2.52,8.571l0,75.622c0,7.394 -3.472,12.548 -10.415,15.461l-172.351,71.925l172.351,71.253Z" style="fill:#4285f4;fill-rule:nonzero;"/><g><path d="M195.614,314.586l-113.809,53.079c-2.722,1.135 -4.991,1.702 -6.806,1.702c-2.722,0 -4.934,-1.078 -6.636,-3.234c-1.702,-2.156 -2.552,-5.05 -2.552,-8.681l0,-77.281c0,-7.49 3.517,-12.71 10.55,-15.66l6.299,-2.604l112.954,52.68Z" style="fill:#fabc07;"/><path d="M300.87,118.666l72.92,33.839c6.806,2.951 10.209,8.284 10.209,16.001l0,46.981c0,7.49 -3.403,12.823 -10.209,16.001l-66.549,31.037c-1.055,-0.701 -2.231,-1.323 -3.528,-1.867l-109.017,-45.069l56.242,-23.251l-63.301,-26.417l113.232,-47.254Z" style="fill:#fabc07;"/><path d="M76.181,119.406c-6.914,-2.964 -10.371,-8.159 -10.371,-15.585l0,-76.6c0,-3.631 0.851,-6.525 2.552,-8.681c1.702,-2.156 3.914,-3.234 6.636,-3.234c1.815,0 4.084,0.567 6.806,1.702l107.518,49.894l-113.142,52.504Z" style="fill:#fabc07;"/><path d="M82.66,261.906l112.038,-46.318l109.017,45.069c1.297,0.544 2.473,1.167 3.528,1.867l-111.628,52.062l-112.954,-52.68Z" style="fill:#fabc07;"/></g></g></svg>