<?xml version="1.0" encoding="UTF-8" standalone="no"?><!DOCTYPE svg PUBLIC "-//W3C//DTD SVG 1.1//EN" "http://www.w3.org/Graphics/SVG/1.1/DTD/svg11.dtd"><svg width="100%" height="100%" viewBox="0 0 600 142" version="1.1" xmlns="http://www.w3.org/2000/svg" xmlns:xlink="http://www.w3.org/1999/xlink" xml:space="preserve" xmlns:serif="http://www.serif.com/" style="fill-rule:evenodd;clip-rule:evenodd;stroke-linejoin:round;stroke-miterlimit:2;"><g><path d="M99.807,107.184c2.282,0.957 3.423,2.65 3.423,5.079l0,25.062c0,1.178 -0.276,2.116 -0.828,2.815c-0.552,0.699 -1.27,1.049 -2.153,1.049c-0.589,0 -1.325,-0.184 -2.208,-0.552l-94.728,-44.162c-2.208,-1.03 -3.312,-2.76 -3.312,-5.189l0,-15.236c0,-2.503 1.104,-4.232 3.312,-5.189l94.728,-43.942c0.883,-0.368 1.619,-0.552 2.208,-0.552c0.883,0 1.601,0.35 2.153,1.049c0.552,0.699 0.828,1.638 0.828,2.815l0,24.841c0,2.429 -1.141,4.122 -3.423,5.079l-56.638,23.627l56.638,23.406Z" style="fill-rule:nonzero;"/><path d="M600,91.286c0,2.429 -1.104,4.159 -3.312,5.189l-94.728,44.162c-0.883,0.368 -1.619,0.552 -2.208,0.552c-0.883,0 -1.601,-0.35 -2.153,-1.049c-0.552,-0.699 -0.828,-1.638 -0.828,-2.815l0,-25.062c0,-2.429 1.141,-4.122 3.423,-5.079l56.638,-23.406l-56.638,-23.627c-2.282,-0.957 -3.423,-2.65 -3.423,-5.079l0,-24.841c0,-1.178 0.276,-2.116 0.828,-2.815c0.552,-0.699 1.27,-1.049 2.153,-1.049c0.589,0 1.325,0.184 2.208,0.552l94.728,43.942c2.208,0.957 3.312,2.687 3.312,5.189l0,15.236Z" style="fill-rule:nonzero;"/><g><path d="M136.944,31.599c9.125,0 16.813,3.013 23.066,9.04c6.252,6.027 9.378,15.461 9.378,28.304l0,58.635l-24.671,0l0,-11.997c-6.872,9.463 -16.785,14.194 -29.74,14.194c-7.66,0 -14.504,-2.309 -20.531,-6.928c-6.027,-4.619 -9.04,-11.04 -9.04,-19.263c0,-10.927 3.774,-19.235 11.322,-24.924c7.548,-5.689 16.673,-8.533 27.374,-8.533l20.784,0l0,-1.014c0,-9.913 -4.281,-14.87 -12.842,-14.87c-4.393,0 -8.759,0.62 -13.096,1.859c-4.337,1.239 -7.576,2.478 -9.716,3.718l-3.211,1.859l-9.294,-18.081c0.451,-0.338 1.07,-0.76 1.859,-1.267c0.789,-0.507 2.507,-1.464 5.154,-2.873c2.647,-1.408 5.435,-2.647 8.364,-3.718c2.929,-1.07 6.646,-2.028 11.153,-2.873c4.506,-0.845 9.068,-1.267 13.687,-1.267Zm-11.828,54.918c-9.913,0 -14.87,4.393 -14.87,13.18c0,3.605 1.211,6.449 3.633,8.533c2.422,2.084 5.886,3.126 10.392,3.126c5.858,0 10.73,-2.563 14.617,-7.689c3.886,-5.126 5.83,-9.998 5.83,-14.617l0,-2.535l-19.601,0Z" style="fill-rule:nonzero;"/><path d="M237.823,0l24.671,0l0,127.578l-24.671,0l0,-8.111c-6.872,6.872 -15.884,10.308 -27.036,10.308c-13.518,0 -24.502,-4.562 -32.951,-13.687c-8.449,-9.125 -12.673,-20.953 -12.673,-35.485c0,-14.532 4.224,-26.332 12.673,-35.401c8.449,-9.068 19.432,-13.603 32.951,-13.603c11.265,0 20.277,3.38 27.036,10.139l0,-41.738Zm-6.928,61.17c-4.619,-5.069 -10.42,-7.604 -17.405,-7.604c-6.984,0 -12.786,2.535 -17.405,7.604c-4.619,5.069 -6.928,11.547 -6.928,19.432c0,7.886 2.309,14.363 6.928,19.432c4.619,5.069 10.42,7.604 17.405,7.604c6.984,0 12.786,-2.535 17.405,-7.604c4.619,-5.069 6.928,-11.547 6.928,-19.432c0,-7.886 -2.309,-14.363 -6.928,-19.432Z" style="fill-rule:nonzero;"/><path d="M264.86,105.104c2.704,-2.591 6.083,-3.886 10.139,-3.886c4.055,0 7.435,1.267 10.139,3.802c2.704,2.535 4.055,5.999 4.055,10.392c0,4.393 -1.352,7.886 -4.055,10.477c-2.704,2.591 -6.083,3.886 -10.139,3.886c-4.055,0 -7.435,-1.295 -10.139,-3.886c-2.704,-2.591 -4.055,-6.083 -4.055,-10.477c0,-4.393 1.352,-7.829 4.055,-10.308Z" style="fill-rule:nonzero;"/><path d="M297.135,8.111l23.826,0l0,25.516l24.333,0l0,22.643l-24.333,0l0,33.12c0,2.591 0.113,4.844 0.338,6.759c0.225,1.915 0.676,3.83 1.352,5.745c0.676,1.915 1.746,3.38 3.211,4.393c1.464,1.014 3.323,1.521 5.576,1.521c2.591,0 5.069,-0.422 7.435,-1.267c2.366,-0.845 4.055,-1.718 5.069,-2.619l1.69,-1.183l7.773,17.912c-0.563,0.676 -1.436,1.521 -2.619,2.535c-1.183,1.014 -3.83,2.366 -7.942,4.055c-4.112,1.69 -8.59,2.535 -13.434,2.535c-5.745,0 -10.702,-0.958 -14.87,-2.873c-4.168,-1.915 -7.351,-4.309 -9.547,-7.182c-2.197,-2.873 -3.915,-6.646 -5.154,-11.322c-1.239,-4.675 -2,-9.012 -2.281,-13.011c-0.282,-3.999 -0.422,-8.928 -0.422,-14.786l0,-24.333l-15.377,0l0,-22.643l15.377,0l0,-25.516Z" style="fill-rule:nonzero;"/><path d="M385.51,31.599c12.279,0 22.615,4.14 31.007,12.42c8.393,8.28 12.589,20.137 12.589,35.57c0,3.38 -0.113,5.971 -0.338,7.773l-67.253,0c1.127,6.196 3.858,11.124 8.195,14.786c4.337,3.661 9.491,5.492 15.461,5.492c8.9,0 15.659,-3.774 20.277,-11.322l21.122,10.646c-4.281,7.097 -10.026,12.673 -17.236,16.729c-7.21,4.055 -15.264,6.083 -24.164,6.083c-13.744,0 -25.234,-4.619 -34.472,-13.856c-9.237,-9.237 -13.856,-21.01 -13.856,-35.316c0,-14.307 4.675,-26.051 14.025,-35.232c9.35,-9.181 20.897,-13.772 34.641,-13.772Zm-0.338,21.967c-4.844,0 -9.237,1.324 -13.18,3.971c-3.943,2.647 -6.872,6.28 -8.787,10.899l41.231,0c0,-3.492 -1.493,-6.844 -4.478,-10.054c-2.985,-3.211 -7.914,-4.816 -14.786,-4.816Z" style="fill-rule:nonzero;"/><path d="M490.615,96.317l21.122,10.646c-4.281,7.097 -10.026,12.673 -17.236,16.729c-7.21,4.055 -15.264,6.083 -24.164,6.083c-13.744,0 -25.234,-4.619 -34.472,-13.856c-9.237,-9.237 -13.856,-21.01 -13.856,-35.316c0,-14.307 4.619,-26.051 13.856,-35.232c9.237,-9.181 20.728,-13.772 34.472,-13.772c8.787,0 16.785,2 23.995,5.999c7.21,3.999 12.955,9.491 17.236,16.475l-20.953,10.984c-4.731,-7.66 -11.491,-11.491 -20.277,-11.491c-6.984,0 -12.814,2.535 -17.489,7.604c-4.675,5.069 -7.013,11.547 -7.013,19.432c0,7.886 2.338,14.391 7.013,19.517c4.675,5.126 10.505,7.689 17.489,7.689c8.787,0 15.546,-3.83 20.277,-11.491Z" style="fill-rule:nonzero;"/></g></g></svg>