<?xml version="1.0" encoding="UTF-8" standalone="no"?>
<!DOCTYPE svg PUBLIC "-//W3C//DTD SVG 1.1//EN" "http://www.w3.org/Graphics/SVG/1.1/DTD/svg11.dtd">
<svg width="100%" height="100%" viewBox="0 0 2381 686" version="1.1" xmlns="http://www.w3.org/2000/svg" xmlns:xlink="http://www.w3.org/1999/xlink" xml:space="preserve" xmlns:serif="http://www.serif.com/" style="fill-rule:evenodd;clip-rule:evenodd;stroke-linejoin:round;stroke-miterlimit:2;">
    <g transform="matrix(1.028136,0,0,1.028136,-620.361814,-1404.022485)">
        <g transform="matrix(888.933066,0,0,888.933066,570.063776,2025.188079)">
            <path d="M0.402,-0L0.402,-0.105L0.392,-0.128L0.392,-0.316C0.392,-0.35 0.382,-0.376 0.362,-0.394C0.341,-0.412 0.31,-0.422 0.268,-0.422C0.239,-0.422 0.211,-0.417 0.184,-0.408C0.156,-0.399 0.132,-0.387 0.113,-0.372L0.057,-0.481C0.086,-0.502 0.122,-0.518 0.163,-0.529C0.204,-0.54 0.246,-0.546 0.289,-0.546C0.371,-0.546 0.435,-0.526 0.48,-0.488C0.526,-0.449 0.548,-0.389 0.548,-0.307L0.548,-0L0.402,-0ZM0.238,0.008C0.196,0.008 0.16,0.001 0.13,-0.014C0.1,-0.028 0.077,-0.047 0.061,-0.072C0.045,-0.096 0.037,-0.124 0.037,-0.155C0.037,-0.187 0.045,-0.215 0.061,-0.239C0.076,-0.263 0.101,-0.282 0.135,-0.295C0.169,-0.309 0.214,-0.316 0.268,-0.316L0.411,-0.316L0.411,-0.225L0.285,-0.225C0.249,-0.225 0.223,-0.219 0.21,-0.207C0.196,-0.195 0.189,-0.18 0.189,-0.162C0.189,-0.142 0.197,-0.126 0.213,-0.115C0.228,-0.103 0.249,-0.097 0.277,-0.097C0.303,-0.097 0.326,-0.103 0.347,-0.115C0.368,-0.127 0.383,-0.146 0.392,-0.17L0.416,-0.098C0.405,-0.063 0.384,-0.037 0.354,-0.019C0.324,-0.001 0.285,0.008 0.238,0.008Z" style="fill:rgb(48,48,48);fill-rule:nonzero;"/>
        </g>
        <g transform="matrix(888.933066,0,0,888.933066,1024.308573,2025.188079)">
            <path d="M0.303,0.008C0.253,0.008 0.207,-0.004 0.166,-0.027C0.126,-0.049 0.093,-0.081 0.07,-0.123C0.046,-0.164 0.034,-0.213 0.034,-0.269C0.034,-0.325 0.046,-0.374 0.07,-0.416C0.093,-0.457 0.126,-0.489 0.166,-0.512C0.207,-0.534 0.253,-0.546 0.303,-0.546C0.348,-0.546 0.388,-0.536 0.422,-0.516C0.456,-0.496 0.482,-0.465 0.501,-0.425C0.52,-0.384 0.529,-0.332 0.529,-0.269C0.529,-0.206 0.52,-0.154 0.502,-0.113C0.484,-0.072 0.458,-0.042 0.424,-0.022C0.391,-0.002 0.35,0.008 0.303,0.008ZM0.33,-0.12C0.355,-0.12 0.379,-0.126 0.399,-0.138C0.42,-0.15 0.436,-0.167 0.448,-0.189C0.461,-0.212 0.467,-0.239 0.467,-0.269C0.467,-0.3 0.461,-0.327 0.448,-0.349C0.436,-0.371 0.42,-0.388 0.399,-0.4C0.379,-0.412 0.355,-0.418 0.33,-0.418C0.304,-0.418 0.28,-0.412 0.26,-0.4C0.239,-0.388 0.223,-0.371 0.211,-0.349C0.198,-0.327 0.192,-0.3 0.192,-0.269C0.192,-0.239 0.198,-0.212 0.211,-0.189C0.223,-0.167 0.239,-0.15 0.26,-0.138C0.28,-0.126 0.304,-0.12 0.33,-0.12ZM0.471,-0L0.471,-0.11L0.474,-0.27L0.464,-0.429L0.464,-0.742L0.62,-0.742L0.62,-0L0.471,-0Z" style="fill:rgb(48,48,48);fill-rule:nonzero;"/>
        </g>
        <g transform="matrix(888.933066,0,0,888.933066,1541.667618,2025.188079)">
            <path d="M0.131,0.008C0.104,0.008 0.081,-0.002 0.062,-0.02C0.043,-0.038 0.034,-0.061 0.034,-0.09C0.034,-0.119 0.043,-0.142 0.062,-0.16C0.081,-0.178 0.104,-0.186 0.131,-0.186C0.158,-0.186 0.181,-0.178 0.2,-0.16C0.219,-0.142 0.228,-0.119 0.228,-0.09C0.228,-0.061 0.219,-0.038 0.2,-0.02C0.181,-0.002 0.158,0.008 0.131,0.008Z" style="fill:rgb(48,48,48);fill-rule:nonzero;"/>
        </g>
        <g transform="matrix(888.933066,0,0,888.933066,1673.229712,2025.188079)">
            <path d="M0.292,0.008C0.229,0.008 0.179,-0.008 0.144,-0.041C0.109,-0.073 0.091,-0.121 0.091,-0.185L0.091,-0.657L0.247,-0.657L0.247,-0.187C0.247,-0.165 0.253,-0.147 0.265,-0.135C0.277,-0.122 0.293,-0.116 0.314,-0.116C0.339,-0.116 0.36,-0.122 0.377,-0.136L0.419,-0.026C0.403,-0.014 0.384,-0.006 0.362,-0.001C0.339,0.005 0.316,0.008 0.292,0.008ZM0.008,-0.418L0.008,-0.538L0.381,-0.538L0.381,-0.418L0.008,-0.418Z" style="fill:rgb(48,48,48);fill-rule:nonzero;"/>
        </g>
        <g transform="matrix(888.933066,0,0,888.933066,1947.021096,2025.188079)">
            <path d="M0.339,0.008C0.277,0.008 0.224,-0.004 0.177,-0.028C0.131,-0.052 0.096,-0.085 0.07,-0.127C0.045,-0.168 0.032,-0.216 0.032,-0.269C0.032,-0.323 0.045,-0.371 0.07,-0.412C0.094,-0.454 0.129,-0.487 0.172,-0.51C0.215,-0.534 0.264,-0.546 0.319,-0.546C0.372,-0.546 0.419,-0.534 0.461,-0.512C0.504,-0.49 0.537,-0.458 0.562,-0.416C0.586,-0.375 0.599,-0.325 0.599,-0.267C0.599,-0.261 0.599,-0.254 0.598,-0.246C0.598,-0.239 0.597,-0.232 0.596,-0.225L0.159,-0.225L0.159,-0.316L0.514,-0.316L0.454,-0.289C0.454,-0.317 0.448,-0.341 0.437,-0.362C0.425,-0.383 0.41,-0.399 0.39,-0.411C0.37,-0.422 0.346,-0.428 0.32,-0.428C0.293,-0.428 0.27,-0.422 0.249,-0.411C0.229,-0.399 0.213,-0.383 0.202,-0.362C0.191,-0.341 0.185,-0.316 0.185,-0.287L0.185,-0.263C0.185,-0.233 0.192,-0.208 0.205,-0.186C0.218,-0.163 0.236,-0.146 0.26,-0.135C0.284,-0.123 0.311,-0.117 0.343,-0.117C0.372,-0.117 0.397,-0.121 0.418,-0.13C0.44,-0.138 0.46,-0.151 0.478,-0.169L0.561,-0.079C0.536,-0.051 0.505,-0.029 0.468,-0.015C0.431,0 0.388,0.008 0.339,0.008Z" style="fill:rgb(48,48,48);fill-rule:nonzero;"/>
        </g>
        <g transform="matrix(888.933066,0,0,888.933066,2410.155224,2025.188079)">
            <path d="M0.332,0.008C0.274,0.008 0.223,-0.004 0.177,-0.028C0.132,-0.051 0.097,-0.084 0.071,-0.126C0.045,-0.168 0.032,-0.215 0.032,-0.269C0.032,-0.323 0.045,-0.371 0.071,-0.413C0.097,-0.454 0.132,-0.487 0.177,-0.51C0.223,-0.534 0.274,-0.546 0.332,-0.546C0.389,-0.546 0.438,-0.534 0.48,-0.51C0.522,-0.487 0.553,-0.453 0.573,-0.409L0.452,-0.344C0.438,-0.369 0.42,-0.388 0.399,-0.4C0.378,-0.412 0.355,-0.418 0.331,-0.418C0.305,-0.418 0.281,-0.412 0.259,-0.4C0.238,-0.388 0.221,-0.371 0.209,-0.349C0.196,-0.327 0.19,-0.3 0.19,-0.269C0.19,-0.238 0.196,-0.211 0.209,-0.189C0.221,-0.167 0.238,-0.15 0.259,-0.138C0.281,-0.126 0.305,-0.12 0.331,-0.12C0.355,-0.12 0.378,-0.126 0.399,-0.138C0.42,-0.149 0.438,-0.168 0.452,-0.194L0.573,-0.128C0.553,-0.085 0.522,-0.052 0.48,-0.028C0.438,-0.004 0.389,0.008 0.332,0.008Z" style="fill:rgb(48,48,48);fill-rule:nonzero;"/>
        </g>
        <g transform="matrix(888.933066,0,0,888.933066,2935.514666,2025.188079)">
        </g>
    </g>
</svg>
